<svg xmlns="http://www.w3.org/2000/svg" xmlns:xlink="http://www.w3.org/1999/xlink" width="750" zoomAndPan="magnify" viewBox="0 0 562.5 262.499992" height="350" preserveAspectRatio="xMidYMid meet" version="1.2"><defs/><g id="50d71efc26"><g style="fill:#000000;fill-opacity:1;"><g transform="translate(4.199464, 179.637113)"><path style="stroke:none" d="M 6.75 22.96875 L 33.1875 10.03125 C 38.039062 18.050781 46.484375 22.0625 58.515625 22.0625 C 64.109375 22.0625 69.304688 20.265625 74.109375 16.671875 C 78.910156 13.085938 81.3125 7.59375 81.3125 0.1875 L 81.3125 -6.75 C 75.601562 -0.425781 65.394531 2.734375 50.6875 2.734375 C 37.195312 2.734375 26.070312 -2.035156 17.3125 -11.578125 C 8.5625 -21.117188 4.1875 -32.816406 4.1875 -46.671875 C 4.1875 -60.523438 8.5625 -72.253906 17.3125 -81.859375 C 26.070312 -91.460938 37.195312 -96.265625 50.6875 -96.265625 C 62.71875 -96.265625 72.742188 -92.554688 80.765625 -85.140625 L 81.3125 -85.140625 L 81.3125 -93.53125 L 113.578125 -93.53125 L 113.578125 2.546875 C 113.578125 17.742188 108.53125 29.472656 98.4375 37.734375 C 88.351562 46.003906 75.046875 50.140625 58.515625 50.140625 C 31.773438 50.140625 14.519531 41.082031 6.75 22.96875 Z M 44.75 -62.53125 C 40.5625 -58.394531 38.46875 -53.109375 38.46875 -46.671875 C 38.46875 -40.234375 40.472656 -34.976562 44.484375 -30.90625 C 48.492188 -26.832031 53.78125 -24.796875 60.34375 -24.796875 C 66.664062 -24.796875 71.863281 -26.859375 75.9375 -30.984375 C 80.007812 -35.117188 82.046875 -40.347656 82.046875 -46.671875 C 82.046875 -53.109375 79.945312 -58.394531 75.75 -62.53125 C 71.5625 -66.664062 66.425781 -68.734375 60.34375 -68.734375 C 54.144531 -68.734375 48.945312 -66.664062 44.75 -62.53125 Z M 44.75 -62.53125 "/></g></g><g style="fill:#000000;fill-opacity:1;"><g transform="translate(111.552886, 179.637113)"><path style="stroke:none" d="M 19.78125 -11.125 C 9.382812 -20.363281 4.1875 -32.210938 4.1875 -46.671875 C 4.1875 -61.128906 9.59375 -73.007812 20.40625 -82.3125 C 31.226562 -91.613281 44.601562 -96.265625 60.53125 -96.265625 C 76.207031 -96.265625 89.421875 -91.582031 100.171875 -82.21875 C 110.929688 -72.863281 116.3125 -61.015625 116.3125 -46.671875 C 116.3125 -32.328125 111.054688 -20.503906 100.546875 -11.203125 C 90.035156 -1.910156 76.695312 2.734375 60.53125 2.734375 C 43.757812 2.734375 30.175781 -1.882812 19.78125 -11.125 Z M 44.75 -62.53125 C 40.5625 -58.394531 38.46875 -53.109375 38.46875 -46.671875 C 38.46875 -40.234375 40.472656 -34.976562 44.484375 -30.90625 C 48.492188 -26.832031 53.78125 -24.796875 60.34375 -24.796875 C 66.664062 -24.796875 71.863281 -26.859375 75.9375 -30.984375 C 80.007812 -35.117188 82.046875 -40.347656 82.046875 -46.671875 C 82.046875 -53.109375 79.945312 -58.394531 75.75 -62.53125 C 71.5625 -66.664062 66.425781 -68.734375 60.34375 -68.734375 C 54.144531 -68.734375 48.945312 -66.664062 44.75 -62.53125 Z M 44.75 -62.53125 "/></g></g><g style="fill:#000000;fill-opacity:1;"><g transform="translate(214.896313, 179.637113)"><path style="stroke:none" d="M 10.9375 0 L 10.9375 -156.78125 L 43.203125 -156.78125 L 43.203125 0 Z M 10.9375 0 "/></g></g><g style="fill:#000000;fill-opacity:1;"><g transform="translate(251.892606, 179.637113)"><path style="stroke:none" d="M 10.9375 0 L 10.9375 -93.53125 L 43.203125 -93.53125 L 43.203125 -83.6875 L 43.578125 -83.6875 C 51.960938 -92.070312 60.894531 -96.265625 70.375 -96.265625 C 74.988281 -96.265625 79.570312 -95.65625 84.125 -94.4375 C 88.6875 -93.21875 93.0625 -91.332031 97.25 -88.78125 C 101.445312 -86.226562 104.851562 -82.613281 107.46875 -77.9375 C 110.082031 -73.257812 111.390625 -67.820312 111.390625 -61.625 L 111.390625 0 L 79.125 0 L 79.125 -52.875 C 79.125 -57.726562 77.570312 -61.976562 74.46875 -65.625 C 71.375 -69.28125 67.332031 -71.109375 62.34375 -71.109375 C 57.488281 -71.109375 53.082031 -69.222656 49.125 -65.453125 C 45.175781 -61.679688 43.203125 -57.488281 43.203125 -52.875 L 43.203125 0 Z M 10.9375 0 "/></g></g><g style="fill:#000000;fill-opacity:1;"><g transform="translate(355.236033, 179.637113)"><path style="stroke:none" d="M 14.03125 -145.65625 C 17.800781 -149.425781 22.300781 -151.3125 27.53125 -151.3125 C 32.757812 -151.3125 37.253906 -149.425781 41.015625 -145.65625 C 44.785156 -141.894531 46.671875 -137.398438 46.671875 -132.171875 C 46.671875 -126.953125 44.785156 -122.457031 41.015625 -118.6875 C 37.253906 -114.914062 32.757812 -113.03125 27.53125 -113.03125 C 22.300781 -113.03125 17.800781 -114.914062 14.03125 -118.6875 C 10.269531 -122.457031 8.390625 -126.953125 8.390625 -132.171875 C 8.390625 -137.398438 10.269531 -141.894531 14.03125 -145.65625 Z M 10.9375 -93.53125 L 10.9375 0 L 43.203125 0 L 43.203125 -93.53125 Z M 10.9375 -93.53125 "/></g></g><g style="fill:#000000;fill-opacity:1;"><g transform="translate(393.143716, 179.637113)"><path style="stroke:none" d="M 17.3125 -11.578125 C 8.5625 -21.117188 4.1875 -32.816406 4.1875 -46.671875 C 4.1875 -60.523438 8.5625 -72.253906 17.3125 -81.859375 C 26.070312 -91.460938 37.195312 -96.265625 50.6875 -96.265625 C 63.082031 -96.265625 73.289062 -92.375 81.3125 -84.59375 L 81.3125 -93.53125 L 113.578125 -93.53125 L 113.578125 0 L 81.671875 0 L 81.671875 -10.578125 L 81.3125 -10.578125 C 73.289062 -1.703125 63.082031 2.734375 50.6875 2.734375 C 37.195312 2.734375 26.070312 -2.035156 17.3125 -11.578125 Z M 44.75 -62.53125 C 40.5625 -58.394531 38.46875 -53.109375 38.46875 -46.671875 C 38.46875 -40.234375 40.472656 -34.976562 44.484375 -30.90625 C 48.492188 -26.832031 53.78125 -24.796875 60.34375 -24.796875 C 66.664062 -24.796875 71.863281 -26.859375 75.9375 -30.984375 C 80.007812 -35.117188 82.046875 -40.347656 82.046875 -46.671875 C 82.046875 -53.109375 79.945312 -58.394531 75.75 -62.53125 C 71.5625 -66.664062 66.425781 -68.734375 60.34375 -68.734375 C 54.144531 -68.734375 48.945312 -66.664062 44.75 -62.53125 Z M 44.75 -62.53125 "/></g></g><g style="fill:#000000;fill-opacity:1;"><g transform="translate(500.497137, 179.637113)"><path style="stroke:none" d="M 31.71875 -39.015625 C 37.550781 -39.015625 42.503906 -36.976562 46.578125 -32.90625 C 50.648438 -28.832031 52.6875 -23.878906 52.6875 -18.046875 C 52.6875 -12.335938 50.648438 -7.445312 46.578125 -3.375 C 42.503906 0.695312 37.550781 2.734375 31.71875 2.734375 C 26.007812 2.734375 21.117188 0.695312 17.046875 -3.375 C 12.972656 -7.445312 10.9375 -12.335938 10.9375 -18.046875 C 10.9375 -23.878906 12.972656 -28.832031 17.046875 -32.90625 C 21.117188 -36.976562 26.007812 -39.015625 31.71875 -39.015625 Z M 31.71875 -39.015625 "/></g></g></g></svg>