<svg xmlns="http://www.w3.org/2000/svg" xmlns:xlink="http://www.w3.org/1999/xlink" width="750" zoomAndPan="magnify" viewBox="0 0 562.5 262.499992" height="350" preserveAspectRatio="xMidYMid meet" version="1.2"><defs/><g id="d7d4c51903"><g style="fill:#f1efe7;fill-opacity:1;"><g transform="translate(4.170527, 180.077715)"><path style="stroke:none" d="M 6.75 22.96875 L 33.1875 10.03125 C 38.050781 18.050781 46.5 22.0625 58.53125 22.0625 C 64.125 22.0625 69.316406 20.265625 74.109375 16.671875 C 78.910156 13.085938 81.3125 7.59375 81.3125 0.1875 L 81.3125 -6.75 C 75.601562 -0.425781 65.394531 2.734375 50.6875 2.734375 C 37.195312 2.734375 26.070312 -2.035156 17.3125 -11.578125 C 8.5625 -21.117188 4.1875 -32.816406 4.1875 -46.671875 C 4.1875 -60.535156 8.5625 -72.265625 17.3125 -81.859375 C 26.070312 -91.460938 37.195312 -96.265625 50.6875 -96.265625 C 62.71875 -96.265625 72.742188 -92.554688 80.765625 -85.140625 L 81.3125 -85.140625 L 81.3125 -93.53125 L 113.59375 -93.53125 L 113.59375 2.546875 C 113.59375 17.742188 108.546875 29.472656 98.453125 37.734375 C 88.367188 46.003906 75.0625 50.140625 58.53125 50.140625 C 31.789062 50.140625 14.53125 41.082031 6.75 22.96875 Z M 44.75 -62.53125 C 40.5625 -58.40625 38.46875 -53.117188 38.46875 -46.671875 C 38.46875 -40.234375 40.472656 -34.976562 44.484375 -30.90625 C 48.492188 -26.832031 53.78125 -24.796875 60.34375 -24.796875 C 66.664062 -24.796875 71.863281 -26.859375 75.9375 -30.984375 C 80.007812 -35.117188 82.046875 -40.347656 82.046875 -46.671875 C 82.046875 -53.117188 79.945312 -58.40625 75.75 -62.53125 C 71.5625 -66.664062 66.425781 -68.734375 60.34375 -68.734375 C 54.144531 -68.734375 48.945312 -66.664062 44.75 -62.53125 Z M 44.75 -62.53125 "/></g></g><g style="fill:#f1efe7;fill-opacity:1;"><g transform="translate(111.551663, 180.077715)"><path style="stroke:none" d="M 19.78125 -11.125 C 9.382812 -20.363281 4.1875 -32.210938 4.1875 -46.671875 C 4.1875 -61.140625 9.59375 -73.019531 20.40625 -82.3125 C 31.226562 -91.613281 44.601562 -96.265625 60.53125 -96.265625 C 76.207031 -96.265625 89.425781 -91.582031 100.1875 -82.21875 C 110.945312 -72.863281 116.328125 -61.015625 116.328125 -46.671875 C 116.328125 -32.328125 111.066406 -20.503906 100.546875 -11.203125 C 90.035156 -1.910156 76.695312 2.734375 60.53125 2.734375 C 43.757812 2.734375 30.175781 -1.882812 19.78125 -11.125 Z M 44.75 -62.53125 C 40.5625 -58.40625 38.46875 -53.117188 38.46875 -46.671875 C 38.46875 -40.234375 40.472656 -34.976562 44.484375 -30.90625 C 48.492188 -26.832031 53.78125 -24.796875 60.34375 -24.796875 C 66.664062 -24.796875 71.863281 -26.859375 75.9375 -30.984375 C 80.007812 -35.117188 82.046875 -40.347656 82.046875 -46.671875 C 82.046875 -53.117188 79.945312 -58.40625 75.75 -62.53125 C 71.5625 -66.664062 66.425781 -68.734375 60.34375 -68.734375 C 54.144531 -68.734375 48.945312 -66.664062 44.75 -62.53125 Z M 44.75 -62.53125 "/></g></g><g style="fill:#f1efe7;fill-opacity:1;"><g transform="translate(214.921914, 180.077715)"><path style="stroke:none" d="M 10.9375 0 L 10.9375 -156.796875 L 43.21875 -156.796875 L 43.21875 0 Z M 10.9375 0 "/></g></g><g style="fill:#f1efe7;fill-opacity:1;"><g transform="translate(251.930254, 180.077715)"><path style="stroke:none" d="M 10.9375 0 L 10.9375 -93.53125 L 43.21875 -93.53125 L 43.21875 -83.6875 L 43.578125 -83.6875 C 51.960938 -92.070312 60.894531 -96.265625 70.375 -96.265625 C 75 -96.265625 79.585938 -95.65625 84.140625 -94.4375 C 88.703125 -93.226562 93.078125 -91.347656 97.265625 -88.796875 C 101.460938 -86.242188 104.867188 -82.625 107.484375 -77.9375 C 110.097656 -73.257812 111.40625 -67.820312 111.40625 -61.625 L 111.40625 0 L 79.125 0 L 79.125 -52.875 C 79.125 -57.738281 77.570312 -61.992188 74.46875 -65.640625 C 71.375 -69.285156 67.335938 -71.109375 62.359375 -71.109375 C 57.492188 -71.109375 53.085938 -69.222656 49.140625 -65.453125 C 45.191406 -61.679688 43.21875 -57.488281 43.21875 -52.875 L 43.21875 0 Z M 10.9375 0 "/></g></g><g style="fill:#f1efe7;fill-opacity:1;"><g transform="translate(355.300505, 180.077715)"><path style="stroke:none" d="M 14.03125 -145.671875 C 17.800781 -149.441406 22.300781 -151.328125 27.53125 -151.328125 C 32.757812 -151.328125 37.253906 -149.441406 41.015625 -145.671875 C 44.785156 -141.910156 46.671875 -137.414062 46.671875 -132.1875 C 46.671875 -126.957031 44.785156 -122.457031 41.015625 -118.6875 C 37.253906 -114.925781 32.757812 -113.046875 27.53125 -113.046875 C 22.300781 -113.046875 17.800781 -114.925781 14.03125 -118.6875 C 10.269531 -122.457031 8.390625 -126.957031 8.390625 -132.1875 C 8.390625 -137.414062 10.269531 -141.910156 14.03125 -145.671875 Z M 10.9375 -93.53125 L 10.9375 0 L 43.21875 0 L 43.21875 -93.53125 Z M 10.9375 -93.53125 "/></g></g><g style="fill:#f1efe7;fill-opacity:1;"><g transform="translate(393.220392, 180.077715)"><path style="stroke:none" d="M 17.3125 -11.578125 C 8.5625 -21.117188 4.1875 -32.816406 4.1875 -46.671875 C 4.1875 -60.535156 8.5625 -72.265625 17.3125 -81.859375 C 26.070312 -91.460938 37.195312 -96.265625 50.6875 -96.265625 C 63.082031 -96.265625 73.289062 -92.375 81.3125 -84.59375 L 81.3125 -93.53125 L 113.59375 -93.53125 L 113.59375 0 L 81.6875 0 L 81.6875 -10.578125 L 81.3125 -10.578125 C 73.289062 -1.703125 63.082031 2.734375 50.6875 2.734375 C 37.195312 2.734375 26.070312 -2.035156 17.3125 -11.578125 Z M 44.75 -62.53125 C 40.5625 -58.40625 38.46875 -53.117188 38.46875 -46.671875 C 38.46875 -40.234375 40.472656 -34.976562 44.484375 -30.90625 C 48.492188 -26.832031 53.78125 -24.796875 60.34375 -24.796875 C 66.664062 -24.796875 71.863281 -26.859375 75.9375 -30.984375 C 80.007812 -35.117188 82.046875 -40.347656 82.046875 -46.671875 C 82.046875 -53.117188 79.945312 -58.40625 75.75 -62.53125 C 71.5625 -66.664062 66.425781 -68.734375 60.34375 -68.734375 C 54.144531 -68.734375 48.945312 -66.664062 44.75 -62.53125 Z M 44.75 -62.53125 "/></g></g><g style="fill:#f1efe7;fill-opacity:1;"><g transform="translate(500.601527, 180.077715)"><path style="stroke:none" d="M 31.71875 -39.015625 C 37.5625 -39.015625 42.515625 -36.976562 46.578125 -32.90625 C 50.648438 -28.832031 52.6875 -23.878906 52.6875 -18.046875 C 52.6875 -12.335938 50.648438 -7.445312 46.578125 -3.375 C 42.515625 0.695312 37.5625 2.734375 31.71875 2.734375 C 26.007812 2.734375 21.117188 0.695312 17.046875 -3.375 C 12.972656 -7.445312 10.9375 -12.335938 10.9375 -18.046875 C 10.9375 -23.878906 12.972656 -28.832031 17.046875 -32.90625 C 21.117188 -36.976562 26.007812 -39.015625 31.71875 -39.015625 Z M 31.71875 -39.015625 "/></g></g></g></svg>