<svg xmlns="http://www.w3.org/2000/svg" xmlns:xlink="http://www.w3.org/1999/xlink" width="1080" zoomAndPan="magnify" viewBox="0 0 810 809.999993" height="1080" preserveAspectRatio="xMidYMid meet" version="1.0"><defs><clipPath id="a44f9510e6"><path d="M 281 46.070312 L 314 46.070312 L 314 133 L 281 133 Z M 281 46.070312 " clip-rule="nonzero"/></clipPath><clipPath id="9182c9251e"><path d="M 74 394 L 687 394 L 687 763.820312 L 74 763.820312 Z M 74 394 " clip-rule="nonzero"/></clipPath></defs><path fill="#a5ddf8" d="M 719.257812 360.226562 C 723.445312 347.84375 725.71875 334.578125 725.71875 320.785156 C 725.71875 252.792969 670.59375 197.683594 602.597656 197.683594 C 553.789062 197.683594 511.617188 226.078125 491.703125 267.25 C 477.992188 259.484375 462.160156 255.035156 445.273438 255.035156 C 402.019531 255.035156 365.582031 284.125 354.402344 323.800781 C 343.945312 320.929688 332.945312 319.390625 321.574219 319.390625 C 253.257812 319.390625 197.875 374.765625 197.875 443.070312 C 197.875 511.378906 253.257812 566.753906 321.574219 566.753906 L 706.292969 566.753906 C 763.566406 566.753906 809.992188 520.332031 809.992188 463.074219 C 809.992188 410.199219 770.40625 366.605469 719.257812 360.226562 " fill-opacity="1" fill-rule="nonzero"/><path fill="#f9ae00" d="M 196.3125 465.140625 C 161.605469 436.113281 139.523438 392.492188 139.523438 343.714844 C 139.523438 256.328125 210.375 185.496094 297.769531 185.496094 C 385.164062 185.496094 456.015625 256.328125 456.015625 343.714844 C 456.015625 431.097656 385.164062 501.929688 297.769531 501.929688 C 259.160156 501.929688 223.78125 488.109375 196.3125 465.140625 " fill-opacity="1" fill-rule="nonzero"/><g clip-path="url(#a44f9510e6)"><path fill="#fdd83b" d="M 297.769531 132.394531 C 288.859375 132.394531 281.636719 125.171875 281.636719 116.261719 L 281.636719 62.128906 C 281.636719 53.21875 288.859375 45.996094 297.769531 45.996094 C 306.683594 45.996094 313.90625 53.21875 313.90625 62.128906 L 313.90625 116.261719 C 313.90625 125.171875 306.683594 132.394531 297.769531 132.394531 " fill-opacity="1" fill-rule="nonzero"/></g><path fill="#fdd83b" d="M 297.769531 641.429688 C 288.859375 641.429688 281.636719 634.207031 281.636719 625.296875 L 281.636719 571.164062 C 281.636719 562.253906 288.859375 555.03125 297.769531 555.03125 C 306.683594 555.03125 313.90625 562.253906 313.90625 571.164062 L 313.90625 625.296875 C 313.90625 634.207031 306.683594 641.429688 297.769531 641.429688 " fill-opacity="1" fill-rule="nonzero"/><path fill="#fdd83b" d="M 184.042969 162.871094 C 178.464844 162.871094 173.042969 159.972656 170.054688 154.796875 L 142.980469 107.917969 C 138.523438 100.199219 141.171875 90.335938 148.890625 85.878906 C 156.605469 81.425781 166.476562 84.066406 170.933594 91.785156 L 198.003906 138.664062 C 202.460938 146.382812 199.8125 156.246094 192.097656 160.703125 C 189.558594 162.171875 186.777344 162.871094 184.042969 162.871094 " fill-opacity="1" fill-rule="nonzero"/><path fill="#fdd83b" d="M 438.601562 603.707031 C 433.023438 603.707031 427.601562 600.8125 424.609375 595.640625 L 397.539062 548.761719 C 393.082031 541.039062 395.730469 531.179688 403.441406 526.722656 C 411.164062 522.265625 421.035156 524.90625 425.484375 532.628906 L 452.554688 579.507812 C 457.011719 587.222656 454.371094 597.089844 446.648438 601.546875 C 444.109375 603.011719 441.335938 603.707031 438.601562 603.707031 " fill-opacity="1" fill-rule="nonzero"/><path fill="#fdd83b" d="M 100.746094 246.125 C 98.007812 246.125 95.234375 245.425781 92.695312 243.957031 L 45.800781 216.890625 C 38.085938 212.433594 35.441406 202.566406 39.898438 194.851562 C 44.351562 187.140625 54.222656 184.492188 61.9375 188.949219 L 108.832031 216.015625 C 116.546875 220.46875 119.191406 230.339844 114.738281 238.050781 C 111.75 243.226562 106.320312 246.125 100.746094 246.125 " fill-opacity="1" fill-rule="nonzero"/><path fill="#fdd83b" d="M 541.652344 500.640625 C 538.914062 500.640625 536.144531 499.945312 533.597656 498.476562 L 486.710938 471.410156 C 478.996094 466.957031 476.347656 457.085938 480.804688 449.375 C 485.261719 441.652344 495.128906 439.011719 502.84375 443.46875 L 549.730469 470.535156 C 557.453125 474.992188 560.09375 484.851562 555.636719 492.574219 C 552.648438 497.746094 547.230469 500.640625 541.652344 500.640625 " fill-opacity="1" fill-rule="nonzero"/><path fill="#fdd83b" d="M 70.28125 359.847656 L 16.140625 359.847656 C 7.230469 359.847656 0.0078125 352.621094 0.0078125 343.714844 C 0.0078125 334.804688 7.230469 327.582031 16.140625 327.582031 L 70.28125 327.582031 C 79.195312 327.582031 86.417969 334.804688 86.417969 343.714844 C 86.417969 352.621094 79.195312 359.847656 70.28125 359.847656 " fill-opacity="1" fill-rule="nonzero"/><path fill="#fdd83b" d="M 53.890625 500.640625 C 48.3125 500.640625 42.890625 497.746094 39.898438 492.574219 C 35.441406 484.851562 38.085938 474.992188 45.800781 470.535156 L 92.695312 443.46875 C 100.410156 439.011719 110.28125 441.660156 114.738281 449.375 C 119.191406 457.085938 116.546875 466.957031 108.832031 471.410156 L 61.9375 498.476562 C 59.398438 499.945312 56.625 500.640625 53.890625 500.640625 " fill-opacity="1" fill-rule="nonzero"/><path fill="#fdd83b" d="M 494.789062 246.125 C 489.21875 246.125 483.792969 243.230469 480.804688 238.050781 C 476.347656 230.339844 478.996094 220.46875 486.710938 216.015625 L 533.597656 188.949219 C 541.316406 184.492188 551.1875 187.132812 555.636719 194.851562 C 560.09375 202.566406 557.453125 212.433594 549.730469 216.890625 L 502.84375 243.957031 C 500.304688 245.425781 497.53125 246.125 494.789062 246.125 " fill-opacity="1" fill-rule="nonzero"/><path fill="#fdd83b" d="M 156.941406 603.707031 C 154.203125 603.707031 151.429688 603.011719 148.890625 601.546875 C 141.171875 597.089844 138.523438 587.222656 142.980469 579.507812 L 170.054688 532.628906 C 174.511719 524.90625 184.382812 522.265625 192.097656 526.722656 C 199.8125 531.179688 202.460938 541.039062 198.003906 548.761719 L 170.933594 595.640625 C 167.9375 600.8125 162.519531 603.707031 156.941406 603.707031 " fill-opacity="1" fill-rule="nonzero"/><path fill="#fdd83b" d="M 411.5 162.871094 C 408.761719 162.871094 405.988281 162.171875 403.441406 160.703125 C 395.730469 156.246094 393.082031 146.382812 397.539062 138.664062 L 424.609375 91.785156 C 429.0625 84.066406 438.933594 81.417969 446.648438 85.878906 C 454.371094 90.335938 457.011719 100.199219 452.554688 107.917969 L 425.484375 154.796875 C 422.496094 159.972656 417.078125 162.871094 411.5 162.871094 " fill-opacity="1" fill-rule="nonzero"/><g clip-path="url(#9182c9251e)"><path fill="#80cdf6" d="M 595.539062 557.203125 C 599.726562 544.820312 601.996094 531.554688 601.996094 517.761719 C 601.996094 449.777344 546.871094 394.660156 478.875 394.660156 C 430.074219 394.660156 387.902344 423.054688 367.984375 464.226562 C 354.269531 456.46875 338.4375 452.019531 321.558594 452.019531 C 278.300781 452.019531 241.863281 481.109375 230.675781 520.78125 C 220.226562 517.90625 209.222656 516.367188 197.859375 516.367188 C 129.542969 516.367188 74.160156 571.742188 74.160156 640.050781 C 74.160156 708.363281 129.542969 763.730469 197.859375 763.730469 L 582.574219 763.730469 C 639.84375 763.730469 686.269531 717.3125 686.269531 660.050781 C 686.269531 607.179688 646.679688 563.589844 595.539062 557.203125 " fill-opacity="1" fill-rule="nonzero"/></g></svg>