<svg xmlns="http://www.w3.org/2000/svg" xmlns:xlink="http://www.w3.org/1999/xlink" width="1080" zoomAndPan="magnify" viewBox="0 0 810 809.999993" height="1080" preserveAspectRatio="xMidYMid meet" version="1.0"><defs><clipPath id="4cc66178d1"><path d="M 0 373 L 747 373 L 747 744.5625 L 0 744.5625 Z M 0 373 " clip-rule="nonzero"/></clipPath></defs><path fill="#f8e55b" d="M 689.917969 590.75 C 711.558594 567.539062 766.058594 508.523438 779.1875 477.617188 C 787.210938 458.753906 792.84375 439.507812 796.53125 420.164062 C 740.621094 452.90625 670.582031 459.914062 606.378906 432.589844 C 498.59375 386.730469 448.382812 262.136719 494.21875 154.289062 C 504.929688 129.101562 520.050781 107.195312 538.136719 88.78125 C 423.425781 82.027344 311.703125 146.59375 264.160156 258.46875 C 251.269531 288.792969 243.023438 348.882812 241.152344 380.007812 " fill-opacity="1" fill-rule="nonzero"/><path fill="#565fa0" d="M 644.09375 543.847656 C 636.085938 543.847656 628.359375 545.074219 620.976562 547.175781 C 616.140625 484.394531 566.671875 435.019531 506.265625 435.019531 C 471.4375 435.019531 440.285156 451.496094 419.160156 477.410156 C 393.371094 422.210938 339.875 384.167969 277.882812 384.167969 C 192.449219 384.167969 123.046875 456.269531 120.378906 546.234375 C 114.042969 544.714844 107.476562 543.851562 100.707031 543.851562 C 51.554688 543.851562 11.707031 586.128906 11.707031 638.285156 C 11.707031 690.4375 51.554688 732.71875 100.707031 732.71875 C 106.417969 732.71875 638.382812 732.71875 644.09375 732.71875 C 693.242188 732.71875 733.09375 690.4375 733.09375 638.285156 C 733.09375 586.128906 693.242188 543.847656 644.09375 543.847656 Z M 644.09375 543.847656 " fill-opacity="1" fill-rule="nonzero"/><g clip-path="url(#4cc66178d1)"><path fill="#1f212b" d="M 646.304688 744.867188 L 101.011719 744.867188 C 45.734375 744.867188 0.765625 697.453125 0.765625 639.171875 C 0.765625 577.546875 51.097656 527.601562 110.597656 533.976562 C 119.183594 442.878906 190.929688 373.230469 278.8125 373.230469 C 338.453125 373.230469 392.449219 405.679688 423.109375 458.894531 C 446.269531 436.714844 476.449219 424.257812 508.003906 424.257812 C 569.386719 424.257812 621.949219 471.769531 632.507812 534.511719 C 637.136719 533.8125 641.753906 533.449219 646.316406 533.449219 C 701.59375 533.449219 746.5625 580.875 746.5625 639.160156 C 746.5625 697.445312 701.570312 744.867188 646.304688 744.867188 Z M 101.011719 555.355469 C 57.804688 555.355469 22.648438 592.960938 22.648438 639.171875 C 22.648438 685.378906 57.804688 722.972656 101.011719 722.972656 L 646.304688 722.972656 C 689.511719 722.972656 724.667969 685.367188 724.667969 639.171875 C 724.667969 585.886719 677.398438 543.609375 626.105469 558.277344 C 622.945312 559.152344 619.550781 558.605469 616.851562 556.734375 C 614.160156 554.851562 612.453125 551.863281 612.1875 548.589844 C 607.769531 491.148438 561.988281 446.152344 507.992188 446.152344 C 477.773438 446.152344 448.996094 460.1875 429.058594 484.667969 C 426.675781 487.589844 422.921875 489.046875 419.234375 488.609375 C 415.492188 488.148438 412.265625 485.792969 410.667969 482.390625 C 385.523438 428.5625 334.996094 395.125 278.8125 395.125 C 198.839844 395.125 134.230469 461.894531 131.703125 547.132812 C 131.59375 550.441406 130.027344 553.503906 127.402344 555.519531 C 124.789062 557.511719 121.40625 558.234375 118.199219 557.46875 C 112.402344 556.054688 106.613281 555.355469 101.011719 555.355469 Z M 101.011719 555.355469 " fill-opacity="1" fill-rule="nonzero"/></g><path fill="#1f212b" d="M 446.808594 701.078125 L 403.042969 701.078125 C 400.023438 701.078125 397.570312 698.625 397.570312 695.605469 C 397.570312 692.582031 400.023438 690.132812 403.042969 690.132812 L 446.808594 690.132812 C 449.828125 690.132812 452.277344 692.582031 452.277344 695.605469 C 452.277344 698.625 449.839844 701.078125 446.808594 701.078125 Z M 381.160156 701.078125 L 370.21875 701.078125 C 367.195312 701.078125 364.746094 698.625 364.746094 695.605469 C 364.746094 692.582031 367.195312 690.132812 370.21875 690.132812 L 381.160156 690.132812 C 384.179688 690.132812 386.628906 692.582031 386.628906 695.605469 C 386.628906 698.625 384.1875 701.078125 381.160156 701.078125 Z M 359.273438 701.078125 L 85.738281 701.078125 C 82.71875 701.078125 80.265625 698.625 80.265625 695.605469 C 80.265625 692.582031 82.71875 690.132812 85.738281 690.132812 L 359.273438 690.132812 C 362.296875 690.132812 364.746094 692.582031 364.746094 695.605469 C 364.746094 698.625 362.304688 701.078125 359.273438 701.078125 Z M 726.386719 565.261719 C 723.714844 565.261719 721.035156 564.289062 718.921875 562.316406 C 714.503906 558.191406 714.25 551.261719 718.375 546.847656 C 739.703125 523.96875 756.78125 497.640625 769.125 468.597656 C 773.566406 458.140625 777.363281 447.25 780.480469 436.039062 C 723.804688 461.65625 660.023438 462.585938 602.089844 437.921875 C 547.273438 414.601562 504.808594 371.316406 482.53125 316.042969 C 460.253906 260.765625 460.835938 200.117188 484.140625 145.269531 C 491.855469 127.109375 501.929688 110.140625 514.21875 94.617188 C 410 97.515625 315.445312 161 274.195312 258.019531 C 262.082031 286.546875 254.992188 316.554688 253.164062 347.164062 C 252.8125 353.207031 247.574219 357.585938 241.589844 357.433594 C 235.546875 357.074219 230.953125 351.882812 231.324219 345.851562 C 233.304688 312.734375 240.953125 280.296875 254.0625 249.4375 C 301.953125 136.773438 416.335938 65.703125 538.761719 73.113281 C 543.050781 73.355469 546.78125 76.09375 548.324219 80.109375 C 549.875 84.105469 548.9375 88.648438 545.925781 91.714844 C 528.070312 109.910156 514.054688 130.808594 504.261719 153.851562 C 483.242188 203.324219 482.71875 258.007812 502.816406 307.851562 C 522.90625 357.707031 561.203125 396.734375 610.636719 417.777344 C 669.597656 442.878906 735.335938 438.566406 790.972656 405.976562 C 794.671875 403.808594 799.300781 403.996094 802.8125 406.492188 C 806.3125 408.964844 808.054688 413.257812 807.242188 417.480469 C 803.28125 438.269531 797.222656 458.347656 789.222656 477.167969 C 775.886719 508.566406 757.425781 537.039062 734.351562 561.78125 C 732.226562 564.101562 729.316406 565.261719 726.386719 565.261719 Z M 726.386719 565.261719 " fill-opacity="1" fill-rule="nonzero"/><path fill="#f8e55b" d="M 131.460938 298.667969 L 144.4375 324.964844 L 173.445312 329.179688 L 152.457031 349.652344 L 157.414062 378.550781 L 131.460938 364.910156 L 105.519531 378.550781 L 110.476562 349.652344 L 89.488281 329.179688 L 118.496094 324.964844 Z M 131.460938 298.667969 " fill-opacity="1" fill-rule="nonzero"/><path fill="#1f212b" d="M 105.519531 384.027344 C 104.382812 384.027344 103.253906 383.675781 102.300781 382.976562 C 100.617188 381.757812 99.773438 379.679688 100.125 377.621094 L 104.601562 351.554688 L 85.683594 333.085938 C 84.183594 331.628906 83.648438 329.453125 84.292969 327.46875 C 84.9375 325.476562 86.65625 324.042969 88.703125 323.738281 L 114.863281 319.9375 L 126.558594 296.214844 C 128.398438 292.492188 134.535156 292.492188 136.363281 296.214844 L 148.058594 319.9375 L 174.230469 323.738281 C 176.289062 324.03125 178.007812 325.476562 178.640625 327.46875 C 179.285156 329.453125 178.75 331.628906 177.253906 333.085938 L 158.335938 351.554688 L 162.796875 377.632812 C 163.148438 379.691406 162.304688 381.757812 160.621094 382.976562 C 158.945312 384.199219 156.703125 384.363281 154.867188 383.390625 L 131.460938 371.085938 L 108.058594 383.402344 C 107.257812 383.828125 106.394531 384.027344 105.519531 384.027344 Z M 131.460938 359.425781 C 132.335938 359.425781 133.210938 359.644531 134 360.0625 L 150.140625 368.546875 L 147.0625 350.558594 C 146.769531 348.785156 147.347656 346.980469 148.652344 345.71875 L 161.691406 333 L 143.652344 330.382812 C 141.878906 330.121094 140.324219 329.003906 139.535156 327.394531 L 131.460938 311.027344 L 123.398438 327.382812 C 122.609375 328.992188 121.054688 330.109375 119.285156 330.371094 L 101.253906 332.988281 L 114.292969 345.710938 C 115.585938 346.96875 116.175781 348.785156 115.882812 350.558594 L 112.796875 368.535156 L 128.933594 360.050781 C 129.710938 359.644531 130.585938 359.425781 131.460938 359.425781 Z M 131.460938 359.425781 " fill-opacity="1" fill-rule="nonzero"/><path fill="#f8e55b" d="M 511.375 511.226562 L 524.351562 537.53125 L 553.355469 541.746094 L 532.371094 562.21875 L 537.316406 591.121094 L 511.375 577.46875 L 485.429688 591.121094 L 490.386719 562.21875 L 469.402344 541.746094 L 498.40625 537.53125 Z M 511.375 511.226562 " fill-opacity="1" fill-rule="nonzero"/><path fill="#1f212b" d="M 485.441406 596.59375 C 484.304688 596.59375 483.175781 596.246094 482.226562 595.542969 C 480.539062 594.328125 479.699219 592.25 480.046875 590.203125 L 484.511719 564.125 L 465.59375 545.65625 C 464.085938 544.210938 463.558594 542.03125 464.195312 540.050781 C 464.839844 538.058594 466.558594 536.625 468.601562 536.316406 L 494.773438 532.519531 L 506.472656 508.796875 C 508.308594 505.074219 514.449219 505.074219 516.273438 508.796875 L 527.972656 532.519531 L 554.132812 536.316406 C 556.191406 536.613281 557.90625 538.058594 558.542969 540.050781 C 559.1875 542.03125 558.652344 544.210938 557.152344 545.667969 L 538.234375 564.136719 L 542.710938 590.203125 C 543.058594 592.257812 542.21875 594.339844 540.53125 595.554688 C 538.847656 596.78125 536.617188 596.957031 534.777344 595.972656 L 511.375 583.65625 L 487.96875 595.972656 C 487.183594 596.398438 486.316406 596.59375 485.441406 596.59375 Z M 481.152344 545.566406 L 494.195312 558.289062 C 495.488281 559.546875 496.078125 561.355469 495.78125 563.128906 L 492.707031 581.113281 L 508.847656 572.628906 C 510.433594 571.796875 512.347656 571.796875 513.933594 572.628906 L 530.074219 581.113281 L 526.988281 563.140625 C 526.691406 561.367188 527.273438 559.546875 528.574219 558.289062 L 541.617188 545.566406 L 523.585938 542.953125 C 521.8125 542.6875 520.257812 541.574219 519.46875 539.964844 L 511.40625 523.609375 L 503.34375 539.964844 C 502.554688 541.574219 501 542.6875 499.226562 542.953125 Z M 400.054688 171.007812 C 398.128906 171.007812 396.269531 169.988281 395.261719 168.195312 C 393.796875 165.546875 394.746094 162.21875 397.382812 160.738281 C 415.910156 150.460938 435.65625 145.707031 455.769531 146.507812 C 458.789062 146.636719 461.128906 149.1875 461.007812 152.210938 C 460.878906 155.222656 458.351562 157.554688 455.308594 157.453125 C 437.070312 156.621094 419.421875 161.011719 402.691406 170.316406 C 401.871094 170.789062 400.960938 171.007812 400.054688 171.007812 Z M 303.035156 342.164062 C 300.101562 342.164062 297.683594 339.851562 297.566406 336.90625 C 297.347656 331.402344 297.355469 325.816406 297.585938 320.179688 C 299.882812 265.199219 323.714844 214.929688 361.34375 185.699219 C 363.707031 183.839844 367.152344 184.253906 369.011719 186.664062 C 370.875 189.050781 370.4375 192.488281 368.050781 194.335938 C 332.929688 221.617188 310.683594 268.835938 308.527344 320.628906 C 308.296875 325.972656 308.296875 331.257812 308.507812 336.480469 C 308.628906 339.492188 306.273438 342.042969 303.253906 342.171875 C 303.167969 342.164062 303.101562 342.164062 303.035156 342.164062 Z M 303.035156 342.164062 " fill-opacity="1" fill-rule="nonzero"/></svg>