<svg xmlns="http://www.w3.org/2000/svg" xmlns:xlink="http://www.w3.org/1999/xlink" width="500" zoomAndPan="magnify" viewBox="0 0 375 299.999988" height="400" preserveAspectRatio="xMidYMid meet" version="1.2"><defs><clipPath id="a6ed960f1b"><path d="M 171.492188 149 L 203.742188 149 L 203.742188 167.960938 L 171.492188 167.960938 Z M 171.492188 149 "/></clipPath></defs><g id="aea6ee53ae"><path style=" stroke:none;fill-rule:nonzero;fill:#000000;fill-opacity:1;" d="M 187.398438 132.148438 L 180.226562 139.253906 C 179.511719 139.945312 179.667969 140.433594 180.667969 140.433594 L 184.671875 140.433594 L 184.671875 149.066406 C 184.671875 150.558594 185.890625 151.769531 187.398438 151.769531 C 188.90625 151.769531 190.125 150.558594 190.125 149.066406 L 190.125 140.433594 L 194.132812 140.433594 C 195.128906 140.433594 195.289062 139.945312 194.574219 139.253906 Z M 187.398438 132.148438 "/><g clip-rule="nonzero" clip-path="url(#a6ed960f1b)"><path style=" stroke:none;fill-rule:nonzero;fill:#000000;fill-opacity:1;" d="M 203.027344 149.550781 L 198.902344 149.550781 C 198.523438 149.550781 198.21875 149.851562 198.21875 150.222656 L 198.21875 162.339844 L 176.949219 162.339844 L 176.949219 150.222656 C 176.949219 149.851562 176.644531 149.550781 176.265625 149.550781 L 172.144531 149.550781 C 171.765625 149.550781 171.460938 149.851562 171.460938 150.222656 L 171.460938 164.042969 C 171.460938 166.101562 173.152344 167.773438 175.226562 167.773438 L 199.941406 167.773438 C 202.019531 167.773438 203.707031 166.101562 203.707031 164.042969 L 203.707031 150.222656 C 203.707031 149.851562 203.402344 149.550781 203.027344 149.550781 Z M 203.027344 149.550781 "/></g><path style=" stroke:none;fill-rule:nonzero;fill:#48acff;fill-opacity:1;" d="M 31.25 231.25 C 30.429688 231.25 29.613281 231.207031 28.800781 231.128906 C 27.984375 231.046875 27.175781 230.925781 26.375 230.765625 C 25.570312 230.605469 24.777344 230.40625 23.996094 230.167969 C 23.210938 229.929688 22.441406 229.652344 21.6875 229.339844 C 20.929688 229.027344 20.191406 228.675781 19.46875 228.289062 C 18.75 227.90625 18.046875 227.484375 17.367188 227.027344 C 16.6875 226.574219 16.03125 226.085938 15.398438 225.566406 C 14.765625 225.046875 14.160156 224.5 13.578125 223.921875 C 13 223.339844 12.453125 222.734375 11.933594 222.101562 C 11.414062 221.46875 10.925781 220.8125 10.472656 220.132812 C 10.015625 219.453125 9.59375 218.75 9.210938 218.03125 C 8.824219 217.308594 8.472656 216.570312 8.160156 215.8125 C 7.847656 215.058594 7.570312 214.289062 7.332031 213.503906 C 7.09375 212.722656 6.894531 211.929688 6.734375 211.125 C 6.574219 210.324219 6.453125 209.515625 6.371094 208.699219 C 6.292969 207.886719 6.25 207.070312 6.25 206.25 L 6.25 31.25 C 6.25 30.429688 6.292969 29.613281 6.371094 28.800781 C 6.453125 27.984375 6.574219 27.175781 6.734375 26.375 C 6.894531 25.570312 7.09375 24.777344 7.332031 23.996094 C 7.570312 23.210938 7.847656 22.441406 8.160156 21.6875 C 8.472656 20.929688 8.824219 20.191406 9.210938 19.46875 C 9.59375 18.75 10.015625 18.046875 10.472656 17.367188 C 10.925781 16.6875 11.414062 16.03125 11.933594 15.398438 C 12.453125 14.765625 13 14.160156 13.578125 13.578125 C 14.160156 13 14.765625 12.453125 15.398438 11.933594 C 16.03125 11.414062 16.6875 10.925781 17.367188 10.472656 C 18.046875 10.015625 18.75 9.59375 19.46875 9.210938 C 20.191406 8.824219 20.929688 8.472656 21.6875 8.160156 C 22.441406 7.847656 23.210938 7.570312 23.996094 7.332031 C 24.777344 7.09375 25.570312 6.894531 26.375 6.734375 C 27.175781 6.574219 27.984375 6.453125 28.800781 6.371094 C 29.613281 6.292969 30.429688 6.25 31.25 6.25 L 281.25 6.25 C 282.070312 6.25 282.886719 6.292969 283.699219 6.371094 C 284.515625 6.453125 285.324219 6.574219 286.125 6.734375 C 286.929688 6.894531 287.722656 7.09375 288.503906 7.332031 C 289.289062 7.570312 290.058594 7.847656 290.8125 8.160156 C 291.570312 8.472656 292.308594 8.824219 293.03125 9.210938 C 293.75 9.59375 294.453125 10.015625 295.132812 10.472656 C 295.8125 10.925781 296.46875 11.414062 297.101562 11.933594 C 297.734375 12.453125 298.339844 13 298.921875 13.578125 C 299.5 14.160156 300.046875 14.765625 300.566406 15.398438 C 301.085938 16.03125 301.574219 16.6875 302.027344 17.367188 C 302.484375 18.046875 302.90625 18.75 303.289062 19.46875 C 303.675781 20.191406 304.027344 20.929688 304.339844 21.6875 C 304.652344 22.441406 304.929688 23.210938 305.167969 23.996094 C 305.40625 24.777344 305.605469 25.570312 305.765625 26.375 C 305.925781 27.175781 306.046875 27.984375 306.128906 28.800781 C 306.207031 29.613281 306.25 30.429688 306.25 31.25 L 306.25 231.25 Z M 31.25 231.25 "/><path style=" stroke:none;fill-rule:nonzero;fill:#33d194;fill-opacity:1;" d="M 256.25 231.25 L 156.261719 131.261719 L 231.125 56.125 L 306.25 131.25 L 306.25 231.25 Z M 256.25 231.25 "/><path style=" stroke:none;fill-rule:nonzero;fill:#5befb3;fill-opacity:1;" d="M 31.25 231.25 C 30.429688 231.25 29.613281 231.207031 28.800781 231.128906 C 27.984375 231.046875 27.175781 230.925781 26.375 230.765625 C 25.570312 230.605469 24.777344 230.40625 23.996094 230.167969 C 23.210938 229.929688 22.441406 229.652344 21.6875 229.339844 C 20.929688 229.027344 20.191406 228.675781 19.46875 228.289062 C 18.75 227.90625 18.046875 227.484375 17.367188 227.027344 C 16.6875 226.574219 16.03125 226.085938 15.398438 225.566406 C 14.765625 225.046875 14.160156 224.5 13.578125 223.921875 C 13 223.339844 12.453125 222.734375 11.933594 222.101562 C 11.414062 221.46875 10.925781 220.8125 10.472656 220.132812 C 10.015625 219.453125 9.59375 218.75 9.210938 218.03125 C 8.824219 217.308594 8.472656 216.570312 8.160156 215.8125 C 7.847656 215.058594 7.570312 214.289062 7.332031 213.503906 C 7.09375 212.722656 6.894531 211.929688 6.734375 211.125 C 6.574219 210.324219 6.453125 209.515625 6.371094 208.699219 C 6.292969 207.886719 6.25 207.070312 6.25 206.25 L 6.25 206.125 L 118.488281 93.492188 L 256.25 231.25 Z M 31.25 231.25 "/><path style=" stroke:none;fill-rule:nonzero;fill:#fcd354;fill-opacity:1;" d="M 168.75 68.75 C 168.75 69.570312 168.667969 70.382812 168.511719 71.1875 C 168.351562 71.992188 168.113281 72.773438 167.796875 73.535156 C 167.484375 74.292969 167.097656 75.011719 166.644531 75.695312 C 166.1875 76.378906 165.667969 77.007812 165.089844 77.589844 C 164.507812 78.167969 163.878906 78.6875 163.195312 79.144531 C 162.511719 79.597656 161.792969 79.984375 161.035156 80.296875 C 160.273438 80.613281 159.492188 80.851562 158.6875 81.011719 C 157.882812 81.167969 157.070312 81.25 156.25 81.25 C 155.429688 81.25 154.617188 81.167969 153.8125 81.011719 C 153.007812 80.851562 152.226562 80.613281 151.464844 80.296875 C 150.707031 79.984375 149.988281 79.597656 149.304688 79.144531 C 148.621094 78.6875 147.992188 78.167969 147.410156 77.589844 C 146.832031 77.007812 146.3125 76.378906 145.855469 75.695312 C 145.402344 75.011719 145.015625 74.292969 144.703125 73.535156 C 144.386719 72.773438 144.148438 71.992188 143.988281 71.1875 C 143.828125 70.382812 143.75 69.570312 143.75 68.75 C 143.75 67.929688 143.828125 67.117188 143.988281 66.3125 C 144.148438 65.507812 144.386719 64.726562 144.703125 63.964844 C 145.015625 63.207031 145.402344 62.488281 145.855469 61.804688 C 146.3125 61.121094 146.832031 60.492188 147.410156 59.910156 C 147.992188 59.332031 148.621094 58.8125 149.304688 58.355469 C 149.988281 57.902344 150.707031 57.515625 151.464844 57.203125 C 152.226562 56.886719 153.007812 56.648438 153.8125 56.488281 C 154.617188 56.328125 155.429688 56.25 156.25 56.25 C 157.070312 56.25 157.882812 56.328125 158.6875 56.488281 C 159.492188 56.648438 160.273438 56.886719 161.035156 57.203125 C 161.792969 57.515625 162.511719 57.902344 163.195312 58.355469 C 163.878906 58.8125 164.507812 59.332031 165.089844 59.910156 C 165.667969 60.492188 166.1875 61.121094 166.644531 61.804688 C 167.097656 62.488281 167.484375 63.207031 167.796875 63.964844 C 168.113281 64.726562 168.351562 65.507812 168.511719 66.3125 C 168.667969 67.117188 168.75 67.929688 168.75 68.75 Z M 168.75 68.75 "/><path style=" stroke:none;fill-rule:nonzero;fill:#fcd354;fill-opacity:1;" d="M 368.75 231.25 C 368.75 233.296875 368.648438 235.339844 368.449219 237.375 C 368.25 239.414062 367.949219 241.433594 367.550781 243.441406 C 367.148438 245.449219 366.652344 247.433594 366.058594 249.394531 C 365.464844 251.351562 364.777344 253.277344 363.992188 255.167969 C 363.210938 257.058594 362.335938 258.90625 361.371094 260.710938 C 360.40625 262.515625 359.355469 264.269531 358.214844 265.972656 C 357.078125 267.675781 355.863281 269.316406 354.5625 270.898438 C 353.265625 272.480469 351.890625 273.996094 350.445312 275.445312 C 348.996094 276.890625 347.480469 278.265625 345.898438 279.5625 C 344.316406 280.863281 342.675781 282.078125 340.972656 283.214844 C 339.269531 284.355469 337.515625 285.40625 335.710938 286.371094 C 333.90625 287.335938 332.058594 288.210938 330.167969 288.992188 C 328.277344 289.777344 326.351562 290.464844 324.394531 291.058594 C 322.433594 291.652344 320.449219 292.148438 318.441406 292.550781 C 316.433594 292.949219 314.414062 293.25 312.375 293.449219 C 310.339844 293.648438 308.296875 293.75 306.25 293.75 C 304.203125 293.75 302.160156 293.648438 300.125 293.449219 C 298.085938 293.25 296.0625 292.949219 294.058594 292.550781 C 292.050781 292.148438 290.066406 291.652344 288.105469 291.058594 C 286.148438 290.464844 284.222656 289.777344 282.332031 288.992188 C 280.441406 288.210938 278.59375 287.335938 276.789062 286.371094 C 274.980469 285.40625 273.230469 284.355469 271.527344 283.214844 C 269.824219 282.078125 268.183594 280.863281 266.601562 279.5625 C 265.019531 278.265625 263.503906 276.890625 262.054688 275.445312 C 260.609375 273.996094 259.234375 272.480469 257.9375 270.898438 C 256.636719 269.316406 255.421875 267.675781 254.28125 265.972656 C 253.144531 264.269531 252.09375 262.515625 251.128906 260.710938 C 250.164062 258.90625 249.289062 257.058594 248.507812 255.167969 C 247.722656 253.277344 247.035156 251.351562 246.441406 249.394531 C 245.847656 247.433594 245.351562 245.449219 244.949219 243.441406 C 244.550781 241.433594 244.25 239.414062 244.050781 237.375 C 243.851562 235.339844 243.75 233.296875 243.75 231.25 C 243.75 229.203125 243.851562 227.160156 244.050781 225.125 C 244.25 223.085938 244.550781 221.0625 244.949219 219.058594 C 245.351562 217.050781 245.847656 215.066406 246.441406 213.105469 C 247.035156 211.148438 247.722656 209.222656 248.507812 207.332031 C 249.289062 205.441406 250.164062 203.59375 251.128906 201.789062 C 252.09375 199.980469 253.144531 198.230469 254.28125 196.527344 C 255.421875 194.824219 256.636719 193.183594 257.9375 191.601562 C 259.234375 190.019531 260.609375 188.503906 262.054688 187.054688 C 263.503906 185.609375 265.019531 184.234375 266.601562 182.9375 C 268.183594 181.636719 269.824219 180.421875 271.527344 179.28125 C 273.230469 178.144531 274.984375 177.09375 276.789062 176.128906 C 278.59375 175.164062 280.441406 174.289062 282.332031 173.507812 C 284.222656 172.722656 286.148438 172.035156 288.105469 171.441406 C 290.066406 170.847656 292.050781 170.351562 294.058594 169.949219 C 296.0625 169.550781 298.085938 169.25 300.125 169.050781 C 302.160156 168.851562 304.203125 168.75 306.25 168.75 C 308.296875 168.75 310.339844 168.851562 312.375 169.050781 C 314.414062 169.25 316.433594 169.550781 318.441406 169.949219 C 320.449219 170.351562 322.433594 170.847656 324.394531 171.441406 C 326.351562 172.035156 328.277344 172.722656 330.167969 173.507812 C 332.058594 174.289062 333.90625 175.164062 335.710938 176.128906 C 337.515625 177.09375 339.269531 178.144531 340.972656 179.28125 C 342.675781 180.421875 344.316406 181.636719 345.898438 182.9375 C 347.480469 184.234375 348.996094 185.609375 350.445312 187.054688 C 351.890625 188.503906 353.265625 190.019531 354.5625 191.601562 C 355.863281 193.183594 357.078125 194.824219 358.214844 196.527344 C 359.355469 198.230469 360.40625 199.980469 361.371094 201.789062 C 362.335938 203.59375 363.210938 205.441406 363.992188 207.332031 C 364.777344 209.222656 365.464844 211.148438 366.058594 213.105469 C 366.652344 215.066406 367.148438 217.050781 367.550781 219.058594 C 367.949219 221.0625 368.25 223.085938 368.449219 225.125 C 368.648438 227.160156 368.75 229.203125 368.75 231.25 Z M 368.75 231.25 "/><path style=" stroke:none;fill-rule:nonzero;fill:#26282b;fill-opacity:1;" d="M 306.25 162.5 C 305.125 162.5 304 162.527344 302.875 162.582031 C 301.753906 162.636719 300.632812 162.722656 299.511719 162.832031 C 298.390625 162.941406 297.273438 163.078125 296.164062 163.242188 C 295.050781 163.410156 293.941406 163.601562 292.835938 163.820312 C 291.734375 164.039062 290.636719 164.285156 289.546875 164.558594 C 288.453125 164.832031 287.371094 165.132812 286.292969 165.460938 C 285.214844 165.785156 284.148438 166.140625 283.089844 166.519531 C 282.03125 166.898438 280.980469 167.300781 279.941406 167.734375 C 278.902344 168.164062 277.871094 168.621094 276.855469 169.101562 C 275.839844 169.582031 274.832031 170.085938 273.839844 170.617188 C 272.847656 171.148438 271.871094 171.703125 270.90625 172.28125 C 269.941406 172.859375 268.988281 173.460938 268.054688 174.085938 C 267.117188 174.710938 266.199219 175.359375 265.296875 176.03125 C 264.390625 176.699219 263.503906 177.390625 262.636719 178.105469 C 261.765625 178.820312 260.914062 179.554688 260.082031 180.308594 C 259.246094 181.066406 258.433594 181.839844 257.636719 182.636719 C 256.839844 183.433594 256.066406 184.246094 255.308594 185.082031 C 254.554688 185.914062 253.820312 186.765625 253.105469 187.636719 C 252.390625 188.503906 251.699219 189.390625 251.03125 190.296875 C 250.359375 191.199219 249.710938 192.117188 249.085938 193.054688 C 248.460938 193.988281 247.859375 194.941406 247.28125 195.90625 C 246.703125 196.871094 246.148438 197.847656 245.617188 198.839844 C 245.085938 199.832031 244.582031 200.839844 244.101562 201.855469 C 243.621094 202.871094 243.164062 203.902344 242.734375 204.941406 C 242.300781 205.980469 241.898438 207.03125 241.519531 208.089844 C 241.140625 209.148438 240.785156 210.214844 240.460938 211.292969 C 240.132812 212.371094 239.832031 213.453125 239.558594 214.546875 C 239.285156 215.636719 239.039062 216.734375 238.820312 217.835938 C 238.601562 218.941406 238.410156 220.050781 238.242188 221.164062 C 238.078125 222.273438 237.941406 223.390625 237.832031 224.511719 C 237.722656 225.632812 237.636719 226.753906 237.582031 227.875 C 237.527344 229 237.5 230.125 237.5 231.25 C 237.5 232.375 237.527344 233.5 237.582031 234.625 C 237.636719 235.746094 237.722656 236.867188 237.832031 237.988281 C 237.941406 239.109375 238.078125 240.226562 238.242188 241.335938 C 238.410156 242.449219 238.601562 243.558594 238.820312 244.664062 C 239.039062 245.765625 239.285156 246.863281 239.558594 247.953125 C 239.832031 249.046875 240.132812 250.128906 240.460938 251.207031 C 240.785156 252.285156 241.140625 253.351562 241.519531 254.410156 C 241.898438 255.46875 242.300781 256.519531 242.734375 257.558594 C 243.164062 258.597656 243.621094 259.628906 244.101562 260.644531 C 244.582031 261.660156 245.085938 262.667969 245.617188 263.660156 C 246.148438 264.652344 246.703125 265.628906 247.28125 266.59375 C 247.859375 267.558594 248.460938 268.511719 249.085938 269.445312 C 249.710938 270.382812 250.359375 271.300781 251.03125 272.203125 C 251.699219 273.109375 252.390625 273.996094 253.105469 274.863281 C 253.820312 275.734375 254.554688 276.585938 255.308594 277.417969 C 256.066406 278.253906 256.839844 279.066406 257.636719 279.863281 C 258.433594 280.660156 259.246094 281.433594 260.082031 282.191406 C 260.914062 282.945312 261.765625 283.679688 262.636719 284.394531 C 263.503906 285.109375 264.390625 285.800781 265.296875 286.46875 C 266.199219 287.140625 267.117188 287.789062 268.054688 288.414062 C 268.988281 289.039062 269.941406 289.640625 270.90625 290.21875 C 271.871094 290.796875 272.847656 291.351562 273.839844 291.882812 C 274.832031 292.414062 275.839844 292.917969 276.855469 293.398438 C 277.871094 293.878906 278.902344 294.335938 279.941406 294.765625 C 280.980469 295.195312 282.03125 295.601562 283.089844 295.980469 C 284.148438 296.359375 285.214844 296.714844 286.292969 297.039062 C 287.371094 297.367188 288.453125 297.667969 289.546875 297.941406 C 290.636719 298.214844 291.734375 298.460938 292.835938 298.679688 C 293.941406 298.898438 295.050781 299.089844 296.164062 299.253906 C 297.273438 299.421875 298.390625 299.558594 299.511719 299.667969 C 300.632812 299.777344 301.753906 299.863281 302.875 299.917969 C 304 299.972656 305.125 300 306.25 300 C 307.375 300 308.5 299.972656 309.625 299.917969 C 310.746094 299.863281 311.867188 299.777344 312.988281 299.667969 C 314.109375 299.558594 315.226562 299.421875 316.335938 299.253906 C 317.449219 299.089844 318.558594 298.898438 319.664062 298.679688 C 320.765625 298.460938 321.863281 298.214844 322.953125 297.941406 C 324.046875 297.667969 325.128906 297.367188 326.207031 297.039062 C 327.285156 296.714844 328.351562 296.359375 329.410156 295.980469 C 330.46875 295.601562 331.519531 295.195312 332.558594 294.765625 C 333.597656 294.335938 334.628906 293.878906 335.644531 293.398438 C 336.660156 292.917969 337.667969 292.414062 338.660156 291.882812 C 339.652344 291.351562 340.628906 290.796875 341.59375 290.21875 C 342.558594 289.640625 343.511719 289.039062 344.445312 288.414062 C 345.382812 287.789062 346.300781 287.140625 347.203125 286.46875 C 348.109375 285.800781 348.996094 285.109375 349.863281 284.394531 C 350.734375 283.679688 351.585938 282.945312 352.417969 282.191406 C 353.253906 281.433594 354.066406 280.660156 354.863281 279.863281 C 355.660156 279.066406 356.433594 278.253906 357.191406 277.417969 C 357.945312 276.585938 358.679688 275.734375 359.394531 274.863281 C 360.109375 273.996094 360.800781 273.109375 361.46875 272.203125 C 362.140625 271.300781 362.789062 270.382812 363.414062 269.445312 C 364.039062 268.511719 364.640625 267.558594 365.21875 266.59375 C 365.796875 265.628906 366.351562 264.652344 366.882812 263.660156 C 367.414062 262.667969 367.917969 261.660156 368.398438 260.644531 C 368.878906 259.628906 369.335938 258.597656 369.765625 257.558594 C 370.195312 256.519531 370.601562 255.46875 370.980469 254.410156 C 371.359375 253.351562 371.714844 252.285156 372.039062 251.207031 C 372.367188 250.128906 372.667969 249.046875 372.941406 247.953125 C 373.214844 246.863281 373.460938 245.765625 373.679688 244.664062 C 373.898438 243.558594 374.089844 242.449219 374.253906 241.335938 C 374.421875 240.226562 374.558594 239.109375 374.667969 237.988281 C 374.777344 236.867188 374.863281 235.746094 374.917969 234.625 C 374.972656 233.5 375 232.375 375 231.25 C 375 230.125 374.96875 229 374.914062 227.878906 C 374.855469 226.753906 374.773438 225.632812 374.660156 224.515625 C 374.550781 223.394531 374.410156 222.277344 374.246094 221.167969 C 374.078125 220.054688 373.886719 218.945312 373.667969 217.84375 C 373.445312 216.738281 373.199219 215.644531 372.925781 214.550781 C 372.648438 213.460938 372.347656 212.378906 372.023438 211.300781 C 371.695312 210.226562 371.339844 209.15625 370.960938 208.097656 C 370.582031 207.039062 370.175781 205.992188 369.746094 204.953125 C 369.316406 203.914062 368.859375 202.886719 368.378906 201.871094 C 367.894531 200.851562 367.390625 199.847656 366.859375 198.855469 C 366.328125 197.863281 365.773438 196.886719 365.195312 195.921875 C 364.617188 194.957031 364.015625 194.007812 363.390625 193.074219 C 362.765625 192.136719 362.117188 191.21875 361.445312 190.316406 C 360.777344 189.410156 360.085938 188.527344 359.371094 187.65625 C 358.65625 186.785156 357.921875 185.933594 357.167969 185.101562 C 356.410156 184.269531 355.636719 183.453125 354.839844 182.660156 C 354.046875 181.863281 353.230469 181.089844 352.398438 180.332031 C 351.5625 179.578125 350.714844 178.84375 349.84375 178.128906 C 348.972656 177.414062 348.089844 176.722656 347.183594 176.054688 C 346.28125 175.382812 345.363281 174.734375 344.425781 174.109375 C 343.492188 173.484375 342.542969 172.882812 341.578125 172.304688 C 340.613281 171.726562 339.636719 171.171875 338.644531 170.640625 C 337.652344 170.109375 336.648438 169.605469 335.628906 169.121094 C 334.613281 168.640625 333.585938 168.183594 332.546875 167.753906 C 331.507812 167.324219 330.460938 166.917969 329.402344 166.539062 C 328.34375 166.160156 327.273438 165.804688 326.199219 165.476562 C 325.121094 165.152344 324.039062 164.851562 322.949219 164.574219 C 321.855469 164.300781 320.761719 164.054688 319.65625 163.832031 C 318.554688 163.613281 317.445312 163.421875 316.332031 163.253906 C 315.222656 163.089844 314.105469 162.949219 312.984375 162.839844 C 311.867188 162.726562 310.746094 162.644531 309.621094 162.585938 C 308.5 162.53125 307.375 162.5 306.25 162.5 Z M 306.25 287.5 C 304.40625 287.5 302.570312 287.410156 300.738281 287.230469 C 298.902344 287.046875 297.082031 286.777344 295.277344 286.417969 C 293.46875 286.058594 291.683594 285.613281 289.921875 285.078125 C 288.160156 284.542969 286.425781 283.921875 284.722656 283.21875 C 283.023438 282.511719 281.359375 281.726562 279.734375 280.859375 C 278.109375 279.988281 276.53125 279.042969 275 278.019531 C 273.46875 276.996094 271.988281 275.902344 270.566406 274.730469 C 269.140625 273.5625 267.777344 272.328125 266.476562 271.023438 C 265.171875 269.722656 263.9375 268.359375 262.769531 266.933594 C 261.597656 265.511719 260.503906 264.03125 259.480469 262.5 C 258.457031 260.96875 257.511719 259.390625 256.640625 257.765625 C 255.773438 256.140625 254.988281 254.476562 254.28125 252.777344 C 253.578125 251.074219 252.957031 249.339844 252.421875 247.578125 C 251.886719 245.816406 251.441406 244.03125 251.082031 242.222656 C 250.722656 240.417969 250.453125 238.597656 250.269531 236.761719 C 250.089844 234.929688 250 233.09375 250 231.25 C 250 229.40625 250.089844 227.570312 250.269531 225.738281 C 250.453125 223.902344 250.722656 222.082031 251.082031 220.277344 C 251.441406 218.46875 251.886719 216.683594 252.421875 214.921875 C 252.957031 213.160156 253.578125 211.425781 254.28125 209.722656 C 254.988281 208.023438 255.773438 206.359375 256.640625 204.734375 C 257.511719 203.109375 258.457031 201.53125 259.480469 200 C 260.503906 198.46875 261.597656 196.988281 262.769531 195.566406 C 263.9375 194.140625 265.171875 192.777344 266.476562 191.476562 C 267.777344 190.171875 269.140625 188.9375 270.566406 187.769531 C 271.988281 186.597656 273.46875 185.503906 275 184.480469 C 276.53125 183.457031 278.109375 182.511719 279.734375 181.640625 C 281.359375 180.773438 283.023438 179.988281 284.722656 179.28125 C 286.425781 178.578125 288.160156 177.957031 289.921875 177.421875 C 291.683594 176.886719 293.46875 176.441406 295.277344 176.082031 C 297.082031 175.722656 298.902344 175.453125 300.738281 175.269531 C 302.570312 175.089844 304.40625 175 306.25 175 C 308.09375 175 309.929688 175.089844 311.761719 175.269531 C 313.597656 175.453125 315.417969 175.722656 317.222656 176.082031 C 319.03125 176.441406 320.816406 176.886719 322.578125 177.421875 C 324.339844 177.957031 326.074219 178.578125 327.777344 179.28125 C 329.476562 179.988281 331.140625 180.773438 332.765625 181.640625 C 334.390625 182.511719 335.96875 183.457031 337.5 184.480469 C 339.03125 185.503906 340.511719 186.597656 341.933594 187.769531 C 343.359375 188.9375 344.722656 190.171875 346.023438 191.476562 C 347.328125 192.777344 348.5625 194.140625 349.730469 195.566406 C 350.902344 196.988281 351.996094 198.46875 353.019531 200 C 354.042969 201.53125 354.988281 203.109375 355.859375 204.734375 C 356.726562 206.359375 357.511719 208.023438 358.21875 209.722656 C 358.921875 211.425781 359.542969 213.160156 360.078125 214.921875 C 360.613281 216.683594 361.058594 218.46875 361.417969 220.277344 C 361.777344 222.082031 362.046875 223.902344 362.230469 225.738281 C 362.410156 227.570312 362.5 229.40625 362.5 231.25 C 362.496094 233.089844 362.40625 234.929688 362.222656 236.761719 C 362.042969 238.59375 361.769531 240.414062 361.410156 242.21875 C 361.046875 244.027344 360.601562 245.808594 360.0625 247.570312 C 359.527344 249.332031 358.90625 251.066406 358.203125 252.765625 C 357.496094 254.46875 356.707031 256.128906 355.839844 257.753906 C 354.972656 259.378906 354.023438 260.953125 353 262.484375 C 351.976562 264.015625 350.882812 265.496094 349.710938 266.917969 C 348.542969 268.339844 347.308594 269.703125 346.007812 271.007812 C 344.703125 272.308594 343.339844 273.542969 341.917969 274.710938 C 340.496094 275.882812 339.015625 276.976562 337.484375 278 C 335.953125 279.023438 334.378906 279.972656 332.753906 280.839844 C 331.128906 281.707031 329.46875 282.496094 327.765625 283.203125 C 326.066406 283.90625 324.332031 284.527344 322.570312 285.0625 C 320.808594 285.601562 319.027344 286.046875 317.21875 286.410156 C 315.414062 286.769531 313.59375 287.042969 311.761719 287.222656 C 309.929688 287.40625 308.089844 287.496094 306.25 287.5 Z M 306.25 287.5 "/><path style=" stroke:none;fill-rule:nonzero;fill:#26282b;fill-opacity:1;" d="M 300 133.835938 L 300 143.75 C 300 144.160156 300.039062 144.566406 300.121094 144.96875 C 300.199219 145.371094 300.320312 145.761719 300.476562 146.140625 C 300.632812 146.519531 300.824219 146.882812 301.054688 147.222656 C 301.28125 147.5625 301.539062 147.878906 301.832031 148.167969 C 302.121094 148.460938 302.4375 148.71875 302.777344 148.945312 C 303.117188 149.175781 303.480469 149.367188 303.859375 149.523438 C 304.238281 149.679688 304.628906 149.800781 305.03125 149.878906 C 305.433594 149.960938 305.839844 150 306.25 150 C 306.660156 150 307.066406 149.960938 307.46875 149.878906 C 307.871094 149.800781 308.261719 149.679688 308.640625 149.523438 C 309.019531 149.367188 309.382812 149.175781 309.722656 148.945312 C 310.0625 148.71875 310.378906 148.460938 310.667969 148.167969 C 310.960938 147.878906 311.21875 147.5625 311.445312 147.222656 C 311.675781 146.882812 311.867188 146.519531 312.023438 146.140625 C 312.179688 145.761719 312.300781 145.371094 312.378906 144.96875 C 312.460938 144.566406 312.5 144.160156 312.5 143.75 L 312.5 31.25 C 312.5 30.226562 312.449219 29.207031 312.347656 28.1875 C 312.246094 27.171875 312.09375 26.160156 311.894531 25.15625 C 311.691406 24.152344 311.445312 23.160156 311.144531 22.183594 C 310.847656 21.203125 310.503906 20.242188 310.109375 19.296875 C 309.71875 18.351562 309.28125 17.429688 308.800781 16.527344 C 308.316406 15.625 307.789062 14.746094 307.222656 13.898438 C 306.652344 13.046875 306.042969 12.226562 305.394531 11.433594 C 304.746094 10.644531 304.058594 9.886719 303.335938 9.164062 C 302.613281 8.441406 301.855469 7.753906 301.066406 7.105469 C 300.273438 6.457031 299.453125 5.847656 298.601562 5.277344 C 297.753906 4.710938 296.875 4.183594 295.972656 3.699219 C 295.070312 3.21875 294.148438 2.78125 293.203125 2.390625 C 292.257812 1.996094 291.296875 1.652344 290.316406 1.355469 C 289.339844 1.054688 288.347656 0.808594 287.34375 0.605469 C 286.339844 0.40625 285.328125 0.253906 284.3125 0.152344 C 283.292969 0.0507812 282.273438 0 281.25 0 L 31.25 0 C 30.226562 0 29.207031 0.0507812 28.1875 0.152344 C 27.171875 0.253906 26.160156 0.40625 25.15625 0.605469 C 24.152344 0.808594 23.160156 1.054688 22.183594 1.355469 C 21.203125 1.652344 20.242188 1.996094 19.296875 2.390625 C 18.351562 2.78125 17.429688 3.21875 16.527344 3.699219 C 15.625 4.183594 14.746094 4.710938 13.898438 5.277344 C 13.046875 5.847656 12.226562 6.457031 11.433594 7.105469 C 10.644531 7.753906 9.886719 8.441406 9.164062 9.164062 C 8.441406 9.886719 7.753906 10.644531 7.105469 11.433594 C 6.457031 12.226562 5.847656 13.046875 5.277344 13.898438 C 4.710938 14.746094 4.183594 15.625 3.699219 16.527344 C 3.21875 17.429688 2.78125 18.351562 2.390625 19.296875 C 1.996094 20.242188 1.652344 21.203125 1.355469 22.183594 C 1.054688 23.160156 0.808594 24.152344 0.605469 25.15625 C 0.40625 26.160156 0.253906 27.171875 0.152344 28.1875 C 0.0507812 29.207031 0 30.226562 0 31.25 L 0 206.28125 C 0.00390625 207.300781 0.0546875 208.324219 0.15625 209.339844 C 0.257812 210.355469 0.410156 211.367188 0.613281 212.371094 C 0.8125 213.371094 1.0625 214.363281 1.359375 215.339844 C 1.660156 216.320312 2.003906 217.28125 2.398438 218.222656 C 2.789062 219.167969 3.226562 220.089844 3.710938 220.992188 C 4.191406 221.894531 4.71875 222.769531 5.289062 223.617188 C 5.855469 224.46875 6.464844 225.289062 7.113281 226.078125 C 7.765625 226.867188 8.449219 227.625 9.171875 228.347656 C 9.898438 229.070312 10.652344 229.753906 11.445312 230.402344 C 12.234375 231.050781 13.054688 231.660156 13.90625 232.230469 C 14.757812 232.796875 15.632812 233.320312 16.535156 233.804688 C 17.4375 234.285156 18.359375 234.722656 19.304688 235.113281 C 20.25 235.507812 21.210938 235.851562 22.1875 236.148438 C 23.167969 236.445312 24.15625 236.695312 25.160156 236.894531 C 26.164062 237.09375 27.171875 237.246094 28.191406 237.347656 C 29.207031 237.449219 30.226562 237.5 31.25 237.5 L 218.75 237.5 C 219.160156 237.5 219.566406 237.460938 219.96875 237.378906 C 220.371094 237.300781 220.761719 237.179688 221.140625 237.023438 C 221.519531 236.867188 221.882812 236.675781 222.222656 236.445312 C 222.5625 236.21875 222.878906 235.960938 223.167969 235.667969 C 223.460938 235.378906 223.71875 235.0625 223.945312 234.722656 C 224.175781 234.382812 224.367188 234.019531 224.523438 233.640625 C 224.679688 233.261719 224.800781 232.871094 224.878906 232.46875 C 224.960938 232.066406 225 231.660156 225 231.25 C 225 230.839844 224.960938 230.433594 224.878906 230.03125 C 224.800781 229.628906 224.679688 229.238281 224.523438 228.859375 C 224.367188 228.480469 224.175781 228.117188 223.945312 227.777344 C 223.71875 227.4375 223.460938 227.121094 223.167969 226.832031 C 222.878906 226.539062 222.5625 226.28125 222.222656 226.054688 C 221.882812 225.824219 221.519531 225.632812 221.140625 225.476562 C 220.761719 225.320312 220.371094 225.199219 219.96875 225.121094 C 219.566406 225.039062 219.160156 225 218.75 225 L 31.25 225 C 30.121094 224.996094 29 224.890625 27.890625 224.6875 C 26.78125 224.480469 25.699219 224.175781 24.644531 223.773438 C 23.585938 223.371094 22.578125 222.878906 21.609375 222.292969 C 20.644531 221.707031 19.738281 221.039062 18.894531 220.292969 C 18.050781 219.542969 17.277344 218.722656 16.582031 217.835938 C 15.886719 216.945312 15.273438 216.003906 14.746094 215.003906 C 14.222656 214.003906 13.789062 212.964844 13.453125 211.886719 C 13.113281 210.8125 12.875 209.710938 12.734375 208.589844 L 118.5 102.339844 L 189.332031 173.171875 C 189.625 173.453125 189.941406 173.707031 190.28125 173.925781 C 190.621094 174.144531 190.980469 174.332031 191.355469 174.480469 C 191.734375 174.632812 192.121094 174.746094 192.519531 174.820312 C 192.917969 174.894531 193.320312 174.929688 193.726562 174.925781 C 194.132812 174.921875 194.535156 174.878906 194.933594 174.800781 C 195.332031 174.71875 195.714844 174.597656 196.089844 174.441406 C 196.464844 174.285156 196.820312 174.09375 197.15625 173.867188 C 197.492188 173.640625 197.804688 173.382812 198.09375 173.097656 C 198.378906 172.808594 198.636719 172.496094 198.863281 172.160156 C 199.089844 171.824219 199.28125 171.46875 199.4375 171.09375 C 199.59375 170.71875 199.714844 170.332031 199.796875 169.9375 C 199.878906 169.539062 199.917969 169.136719 199.921875 168.730469 C 199.925781 168.324219 199.890625 167.921875 199.816406 167.523438 C 199.742188 167.125 199.628906 166.738281 199.476562 166.359375 C 199.328125 165.984375 199.140625 165.625 198.921875 165.285156 C 198.703125 164.941406 198.449219 164.625 198.167969 164.335938 L 165.09375 131.25 L 231.125 64.972656 Z M 231.117188 49.875 C 230.285156 49.875 229.488281 50.035156 228.722656 50.355469 C 227.957031 50.671875 227.28125 51.125 226.695312 51.710938 L 156.25 122.417969 L 122.902344 89.070312 C 122.316406 88.480469 121.640625 88.03125 120.875 87.714844 C 120.109375 87.394531 119.3125 87.238281 118.484375 87.238281 C 117.652344 87.238281 116.851562 87.398438 116.085938 87.71875 C 115.320312 88.039062 114.644531 88.492188 114.058594 89.082031 L 12.5 191.113281 L 12.5 31.25 C 12.5 30.636719 12.53125 30.023438 12.59375 29.414062 C 12.652344 28.800781 12.742188 28.195312 12.863281 27.59375 C 12.984375 26.992188 13.132812 26.398438 13.3125 25.808594 C 13.492188 25.222656 13.699219 24.644531 13.933594 24.078125 C 14.167969 23.511719 14.429688 22.957031 14.71875 22.414062 C 15.011719 21.875 15.324219 21.347656 15.667969 20.839844 C 16.007812 20.328125 16.371094 19.835938 16.761719 19.359375 C 17.152344 18.886719 17.5625 18.433594 17.996094 17.996094 C 18.433594 17.5625 18.886719 17.152344 19.359375 16.761719 C 19.835938 16.371094 20.328125 16.007812 20.839844 15.667969 C 21.347656 15.324219 21.875 15.011719 22.414062 14.71875 C 22.957031 14.429688 23.511719 14.167969 24.078125 13.933594 C 24.644531 13.699219 25.222656 13.492188 25.808594 13.3125 C 26.398438 13.132812 26.992188 12.984375 27.59375 12.863281 C 28.195312 12.742188 28.800781 12.652344 29.414062 12.59375 C 30.023438 12.53125 30.636719 12.5 31.25 12.5 L 281.25 12.5 C 281.863281 12.5 282.476562 12.53125 283.085938 12.59375 C 283.699219 12.652344 284.304688 12.742188 284.90625 12.863281 C 285.507812 12.984375 286.101562 13.132812 286.691406 13.3125 C 287.277344 13.492188 287.855469 13.699219 288.421875 13.933594 C 288.988281 14.167969 289.542969 14.429688 290.085938 14.71875 C 290.625 15.011719 291.152344 15.324219 291.660156 15.667969 C 292.171875 16.007812 292.664062 16.371094 293.140625 16.761719 C 293.613281 17.152344 294.066406 17.5625 294.503906 17.996094 C 294.9375 18.433594 295.347656 18.886719 295.738281 19.359375 C 296.125 19.835938 296.492188 20.328125 296.832031 20.839844 C 297.175781 21.347656 297.488281 21.875 297.78125 22.414062 C 298.070312 22.957031 298.332031 23.511719 298.566406 24.078125 C 298.800781 24.644531 299.007812 25.222656 299.1875 25.808594 C 299.367188 26.398438 299.515625 26.992188 299.636719 27.59375 C 299.757812 28.195312 299.847656 28.800781 299.90625 29.414062 C 299.96875 30.023438 300 30.636719 300 31.25 L 300 116.164062 L 235.542969 51.703125 C 234.957031 51.117188 234.28125 50.667969 233.515625 50.351562 C 232.75 50.035156 231.953125 49.875 231.125 49.875 Z M 231.117188 49.875 "/><path style=" stroke:none;fill-rule:nonzero;fill:#26282b;fill-opacity:1;" d="M 156.25 50 C 155.636719 50 155.023438 50.03125 154.414062 50.089844 C 153.800781 50.152344 153.195312 50.242188 152.59375 50.359375 C 151.988281 50.480469 151.394531 50.628906 150.808594 50.808594 C 150.21875 50.984375 149.640625 51.191406 149.074219 51.425781 C 148.507812 51.664062 147.953125 51.925781 147.410156 52.214844 C 146.871094 52.503906 146.34375 52.820312 145.832031 53.160156 C 145.324219 53.5 144.828125 53.867188 144.355469 54.257812 C 143.878906 54.644531 143.425781 55.058594 142.992188 55.492188 C 142.558594 55.925781 142.144531 56.378906 141.757812 56.855469 C 141.367188 57.328125 141 57.824219 140.660156 58.332031 C 140.320312 58.84375 140.003906 59.371094 139.714844 59.910156 C 139.425781 60.453125 139.164062 61.007812 138.925781 61.574219 C 138.691406 62.140625 138.484375 62.71875 138.308594 63.308594 C 138.128906 63.894531 137.980469 64.488281 137.859375 65.09375 C 137.742188 65.695312 137.652344 66.300781 137.589844 66.914062 C 137.53125 67.523438 137.5 68.136719 137.5 68.75 C 137.5 69.363281 137.53125 69.976562 137.589844 70.585938 C 137.652344 71.199219 137.742188 71.804688 137.859375 72.40625 C 137.980469 73.011719 138.128906 73.605469 138.308594 74.191406 C 138.484375 74.78125 138.691406 75.359375 138.925781 75.925781 C 139.164062 76.492188 139.425781 77.046875 139.714844 77.589844 C 140.003906 78.128906 140.320312 78.65625 140.660156 79.167969 C 141 79.675781 141.367188 80.171875 141.757812 80.644531 C 142.144531 81.121094 142.558594 81.574219 142.992188 82.007812 C 143.425781 82.441406 143.878906 82.855469 144.355469 83.242188 C 144.828125 83.632812 145.324219 84 145.832031 84.339844 C 146.34375 84.679688 146.871094 84.996094 147.410156 85.285156 C 147.953125 85.574219 148.507812 85.835938 149.074219 86.074219 C 149.640625 86.308594 150.21875 86.515625 150.808594 86.691406 C 151.394531 86.871094 151.988281 87.019531 152.59375 87.140625 C 153.195312 87.257812 153.800781 87.347656 154.414062 87.410156 C 155.023438 87.46875 155.636719 87.5 156.25 87.5 C 156.863281 87.5 157.476562 87.46875 158.085938 87.410156 C 158.699219 87.347656 159.304688 87.257812 159.90625 87.140625 C 160.511719 87.019531 161.105469 86.871094 161.691406 86.691406 C 162.28125 86.515625 162.859375 86.308594 163.425781 86.074219 C 163.992188 85.835938 164.546875 85.574219 165.089844 85.285156 C 165.628906 84.996094 166.15625 84.679688 166.667969 84.339844 C 167.175781 84 167.671875 83.632812 168.144531 83.242188 C 168.621094 82.855469 169.074219 82.441406 169.507812 82.007812 C 169.941406 81.574219 170.355469 81.121094 170.742188 80.644531 C 171.132812 80.171875 171.5 79.675781 171.839844 79.167969 C 172.179688 78.65625 172.496094 78.128906 172.785156 77.589844 C 173.074219 77.046875 173.335938 76.492188 173.574219 75.925781 C 173.808594 75.359375 174.015625 74.78125 174.191406 74.191406 C 174.371094 73.605469 174.519531 73.011719 174.640625 72.40625 C 174.757812 71.804688 174.847656 71.199219 174.910156 70.585938 C 174.96875 69.976562 175 69.363281 175 68.75 C 175 68.136719 174.96875 67.523438 174.90625 66.914062 C 174.847656 66.300781 174.757812 65.695312 174.636719 65.09375 C 174.515625 64.492188 174.367188 63.898438 174.1875 63.308594 C 174.007812 62.722656 173.800781 62.144531 173.566406 61.578125 C 173.332031 61.011719 173.070312 60.457031 172.78125 59.914062 C 172.488281 59.375 172.175781 58.847656 171.832031 58.339844 C 171.492188 57.828125 171.125 57.335938 170.738281 56.859375 C 170.347656 56.386719 169.9375 55.933594 169.503906 55.496094 C 169.066406 55.0625 168.613281 54.652344 168.140625 54.261719 C 167.664062 53.871094 167.171875 53.507812 166.660156 53.167969 C 166.152344 52.824219 165.625 52.511719 165.085938 52.21875 C 164.542969 51.929688 163.988281 51.667969 163.421875 51.433594 C 162.855469 51.199219 162.277344 50.992188 161.691406 50.8125 C 161.101562 50.632812 160.507812 50.484375 159.90625 50.363281 C 159.304688 50.242188 158.699219 50.152344 158.085938 50.09375 C 157.476562 50.03125 156.863281 50 156.25 50 Z M 156.25 75 C 155.839844 75 155.433594 74.960938 155.03125 74.878906 C 154.628906 74.800781 154.238281 74.679688 153.859375 74.523438 C 153.480469 74.367188 153.117188 74.175781 152.777344 73.945312 C 152.4375 73.71875 152.121094 73.460938 151.832031 73.167969 C 151.539062 72.878906 151.28125 72.5625 151.054688 72.222656 C 150.824219 71.882812 150.632812 71.519531 150.476562 71.140625 C 150.320312 70.761719 150.199219 70.371094 150.121094 69.96875 C 150.039062 69.566406 150 69.160156 150 68.75 C 150 68.339844 150.039062 67.933594 150.121094 67.53125 C 150.199219 67.128906 150.320312 66.738281 150.476562 66.359375 C 150.632812 65.980469 150.824219 65.617188 151.054688 65.277344 C 151.28125 64.9375 151.539062 64.621094 151.832031 64.332031 C 152.121094 64.039062 152.4375 63.78125 152.777344 63.554688 C 153.117188 63.324219 153.480469 63.132812 153.859375 62.976562 C 154.238281 62.820312 154.628906 62.699219 155.03125 62.621094 C 155.433594 62.539062 155.839844 62.5 156.25 62.5 C 156.660156 62.5 157.066406 62.539062 157.46875 62.621094 C 157.871094 62.699219 158.261719 62.820312 158.640625 62.976562 C 159.019531 63.132812 159.382812 63.324219 159.722656 63.554688 C 160.0625 63.78125 160.378906 64.039062 160.667969 64.332031 C 160.960938 64.621094 161.21875 64.9375 161.445312 65.277344 C 161.675781 65.617188 161.867188 65.980469 162.023438 66.359375 C 162.179688 66.738281 162.300781 67.128906 162.378906 67.53125 C 162.460938 67.933594 162.5 68.339844 162.5 68.75 C 162.5 69.160156 162.460938 69.566406 162.378906 69.96875 C 162.300781 70.371094 162.179688 70.761719 162.023438 71.140625 C 161.867188 71.519531 161.675781 71.882812 161.445312 72.222656 C 161.21875 72.5625 160.960938 72.878906 160.667969 73.167969 C 160.378906 73.460938 160.0625 73.71875 159.722656 73.945312 C 159.382812 74.175781 159.019531 74.367188 158.640625 74.523438 C 158.261719 74.679688 157.871094 74.800781 157.46875 74.878906 C 157.066406 74.960938 156.660156 75 156.25 75 Z M 156.25 75 "/><path style=" stroke:none;fill-rule:nonzero;fill:#26282b;fill-opacity:1;" d="M 310.675781 189.339844 C 310.386719 189.046875 310.070312 188.789062 309.726562 188.5625 C 309.386719 188.335938 309.023438 188.140625 308.644531 187.984375 C 308.265625 187.828125 307.875 187.710938 307.46875 187.628906 C 307.066406 187.550781 306.660156 187.507812 306.25 187.507812 C 305.839844 187.507812 305.433594 187.550781 305.027344 187.628906 C 304.625 187.710938 304.234375 187.828125 303.855469 187.984375 C 303.476562 188.140625 303.113281 188.335938 302.773438 188.5625 C 302.429688 188.789062 302.113281 189.046875 301.824219 189.339844 L 276.832031 214.332031 C 276.550781 214.625 276.296875 214.9375 276.078125 215.28125 C 275.859375 215.621094 275.671875 215.980469 275.523438 216.355469 C 275.371094 216.734375 275.257812 217.121094 275.183594 217.519531 C 275.109375 217.917969 275.074219 218.320312 275.078125 218.726562 C 275.082031 219.132812 275.121094 219.535156 275.203125 219.933594 C 275.285156 220.328125 275.40625 220.714844 275.5625 221.089844 C 275.71875 221.464844 275.910156 221.820312 276.136719 222.15625 C 276.363281 222.492188 276.621094 222.804688 276.90625 223.09375 C 277.195312 223.378906 277.507812 223.636719 277.84375 223.863281 C 278.179688 224.089844 278.535156 224.28125 278.910156 224.4375 C 279.285156 224.59375 279.667969 224.714844 280.066406 224.796875 C 280.464844 224.878906 280.867188 224.917969 281.273438 224.921875 C 281.679688 224.925781 282.082031 224.890625 282.480469 224.816406 C 282.878906 224.742188 283.265625 224.628906 283.644531 224.476562 C 284.019531 224.328125 284.378906 224.140625 284.71875 223.921875 C 285.058594 223.703125 285.375 223.449219 285.667969 223.167969 L 300 208.835938 L 300 268.75 C 300 269.160156 300.039062 269.566406 300.121094 269.96875 C 300.199219 270.371094 300.320312 270.761719 300.476562 271.140625 C 300.632812 271.519531 300.824219 271.882812 301.054688 272.222656 C 301.28125 272.5625 301.539062 272.878906 301.832031 273.167969 C 302.121094 273.460938 302.4375 273.71875 302.777344 273.945312 C 303.117188 274.175781 303.480469 274.367188 303.859375 274.523438 C 304.238281 274.679688 304.628906 274.800781 305.03125 274.878906 C 305.433594 274.960938 305.839844 275 306.25 275 C 306.660156 275 307.066406 274.960938 307.46875 274.878906 C 307.871094 274.800781 308.261719 274.679688 308.640625 274.523438 C 309.019531 274.367188 309.382812 274.175781 309.722656 273.945312 C 310.0625 273.71875 310.378906 273.460938 310.667969 273.167969 C 310.960938 272.878906 311.21875 272.5625 311.445312 272.222656 C 311.675781 271.882812 311.867188 271.519531 312.023438 271.140625 C 312.179688 270.761719 312.300781 270.371094 312.378906 269.96875 C 312.460938 269.566406 312.5 269.160156 312.5 268.75 L 312.5 208.835938 L 326.832031 223.167969 C 327.125 223.449219 327.441406 223.703125 327.78125 223.921875 C 328.121094 224.140625 328.480469 224.328125 328.855469 224.476562 C 329.234375 224.628906 329.621094 224.742188 330.019531 224.816406 C 330.417969 224.890625 330.820312 224.925781 331.226562 224.921875 C 331.632812 224.917969 332.035156 224.878906 332.433594 224.796875 C 332.828125 224.714844 333.214844 224.59375 333.589844 224.4375 C 333.964844 224.28125 334.320312 224.089844 334.65625 223.863281 C 334.992188 223.636719 335.304688 223.378906 335.59375 223.09375 C 335.878906 222.804688 336.136719 222.492188 336.363281 222.15625 C 336.589844 221.820312 336.78125 221.464844 336.9375 221.089844 C 337.09375 220.714844 337.214844 220.328125 337.296875 219.933594 C 337.378906 219.535156 337.417969 219.132812 337.421875 218.726562 C 337.425781 218.320312 337.390625 217.917969 337.316406 217.519531 C 337.242188 217.121094 337.128906 216.734375 336.976562 216.355469 C 336.828125 215.980469 336.640625 215.621094 336.421875 215.28125 C 336.203125 214.9375 335.949219 214.625 335.667969 214.332031 Z M 310.675781 189.339844 "/></g></svg>