<svg xmlns="http://www.w3.org/2000/svg" xmlns:xlink="http://www.w3.org/1999/xlink" width="500" zoomAndPan="magnify" viewBox="0 0 375.12 374.999991" height="500" preserveAspectRatio="xMidYMid meet" version="1.0"><defs><clipPath id="13a0230165"><path d="M 0 0.4375 L 374.121094 0.4375 L 374.121094 374.558594 L 0 374.558594 Z M 0 0.4375 " clip-rule="nonzero"/></clipPath><clipPath id="437035d35f"><path d="M 180 374 L 194 374 L 194 374.558594 L 180 374.558594 Z M 180 374 " clip-rule="nonzero"/></clipPath><clipPath id="8fb08b6a94"><path d="M 0 120 L 374.121094 120 L 374.121094 255 L 0 255 Z M 0 120 " clip-rule="nonzero"/></clipPath><clipPath id="a3e8443007"><path d="M 12 0.4375 L 362 0.4375 L 362 121 L 12 121 Z M 12 0.4375 " clip-rule="nonzero"/></clipPath><clipPath id="4239bc999c"><path d="M 12 254 L 362 254 L 362 374.558594 L 12 374.558594 Z M 12 254 " clip-rule="nonzero"/></clipPath></defs><g clip-path="url(#13a0230165)"><path fill="#ffffff" d="M 0 0.4375 L 374.121094 0.4375 L 374.121094 374.5625 L 0 374.5625 Z M 0 0.4375 " fill-opacity="1" fill-rule="nonzero"/><path fill="#ffffff" d="M 0 0.4375 L 374.121094 0.4375 L 374.121094 374.5625 L 0 374.5625 Z M 0 0.4375 " fill-opacity="1" fill-rule="nonzero"/></g><g clip-path="url(#437035d35f)"><path fill="#ed1d24" d="M 187.015625 374.5 C 189.136719 374.5 191.25 374.453125 193.355469 374.382812 L 180.675781 374.382812 C 182.78125 374.453125 184.890625 374.5 187.015625 374.5 " fill-opacity="1" fill-rule="nonzero"/></g><g clip-path="url(#8fb08b6a94)"><path fill="#ed1d24" d="M 12.480469 120.078125 C 4.402344 140.984375 -0.0390625 163.699219 -0.0390625 187.457031 C -0.0390625 211.167969 4.386719 233.84375 12.4375 254.722656 L 361.585938 254.722656 C 369.632812 233.84375 374.058594 211.167969 374.058594 187.457031 C 374.058594 163.699219 369.621094 140.984375 361.546875 120.078125 L 12.480469 120.078125 " fill-opacity="1" fill-rule="nonzero"/></g><g clip-path="url(#a3e8443007)"><path fill="#100f0d" d="M 187.015625 0.402344 C 107.464844 0.402344 39.523438 50.066406 12.480469 120.078125 L 361.546875 120.078125 C 334.5 50.066406 266.558594 0.402344 187.015625 0.402344 " fill-opacity="1" fill-rule="nonzero"/></g><g clip-path="url(#4239bc999c)"><path fill="#f7ed08" d="M 180.675781 374.382812 L 193.355469 374.382812 C 270.195312 371.816406 335.289062 322.910156 361.585938 254.722656 L 12.4375 254.722656 C 38.734375 322.910156 103.832031 371.816406 180.675781 374.382812 " fill-opacity="1" fill-rule="nonzero"/></g></svg>