<svg xmlns="http://www.w3.org/2000/svg" xmlns:xlink="http://www.w3.org/1999/xlink" width="500" zoomAndPan="magnify" viewBox="0 0 375.12 374.999991" height="500" preserveAspectRatio="xMidYMid meet" version="1.0"><defs><clipPath id="1758fa4536"><path d="M 0 0.4375 L 374.121094 0.4375 L 374.121094 374.558594 L 0 374.558594 Z M 0 0.4375 " clip-rule="nonzero"/></clipPath></defs><g clip-path="url(#1758fa4536)"><path fill="#ffffff" d="M 0 0.4375 L 374.121094 0.4375 L 374.121094 374.5625 L 0 374.5625 Z M 0 0.4375 " fill-opacity="1" fill-rule="nonzero"/><path fill="#ffffff" d="M 0 0.4375 L 374.121094 0.4375 L 374.121094 374.5625 L 0 374.5625 Z M 0 0.4375 " fill-opacity="1" fill-rule="nonzero"/><path fill="#ffffff" d="M 187.058594 0.4375 C 182.644531 0.4375 178.230469 0.59375 173.828125 0.90625 C 167.609375 1.347656 161.410156 2.101562 155.265625 3.160156 C 149.121094 4.222656 143.03125 5.589844 137.023438 7.257812 C 131.011719 8.925781 125.089844 10.890625 119.277344 13.152344 C 113.464844 15.410156 107.769531 17.960938 102.210938 20.789062 C 96.652344 23.617188 91.238281 26.722656 85.988281 30.09375 C 80.742188 33.464844 75.664062 37.09375 70.78125 40.96875 C 65.894531 44.847656 61.207031 48.964844 56.734375 53.3125 C 52.261719 57.65625 48.007812 62.222656 43.988281 66.992188 C 39.96875 71.761719 36.195312 76.730469 32.671875 81.878906 C 29.152344 87.023438 25.886719 92.34375 22.898438 97.816406 C 19.90625 103.289062 17.195312 108.910156 14.765625 114.65625 C 12.335938 120.398438 10.195312 126.261719 8.355469 132.21875 C 6.511719 138.179688 4.96875 144.222656 3.730469 150.339844 C 2.488281 156.449219 1.558594 162.621094 0.933594 168.824219 C 0.3125 175.03125 0 181.261719 0 187.5 C 0 191.914062 0.15625 196.328125 0.46875 200.734375 C 0.90625 206.953125 1.660156 213.148438 2.71875 219.296875 C 3.78125 225.441406 5.148438 231.53125 6.816406 237.539062 C 8.484375 243.550781 10.453125 249.472656 12.710938 255.285156 C 14.972656 261.097656 17.519531 266.792969 20.347656 272.351562 C 23.179688 277.910156 26.285156 283.320312 29.652344 288.570312 C 33.023438 293.816406 36.652344 298.894531 40.53125 303.777344 C 44.40625 308.664062 48.527344 313.351562 52.871094 317.828125 C 57.214844 322.300781 61.78125 326.554688 66.550781 330.574219 C 71.320312 334.589844 76.289062 338.367188 81.4375 341.890625 C 86.585938 345.410156 91.90625 348.671875 97.378906 351.664062 C 102.851562 354.652344 108.46875 357.367188 114.214844 359.796875 C 119.960938 362.226562 125.820312 364.363281 131.78125 366.207031 C 137.738281 368.050781 143.785156 369.59375 149.898438 370.832031 C 156.007812 372.070312 162.179688 373.003906 168.386719 373.628906 C 174.589844 374.25 180.824219 374.5625 187.058594 374.5625 C 191.472656 374.5625 195.886719 374.40625 200.292969 374.09375 C 206.511719 373.652344 212.707031 372.898438 218.855469 371.839844 C 225 370.78125 231.089844 369.414062 237.097656 367.746094 C 243.109375 366.078125 249.03125 364.109375 254.84375 361.847656 C 260.65625 359.589844 266.351562 357.039062 271.910156 354.210938 C 277.46875 351.382812 282.882812 348.277344 288.128906 344.90625 C 293.378906 341.535156 298.453125 337.90625 303.339844 334.03125 C 308.226562 330.152344 312.914062 326.035156 317.386719 321.691406 C 321.859375 317.34375 326.113281 312.777344 330.132812 308.007812 C 334.148438 303.238281 337.925781 298.269531 341.449219 293.121094 C 344.96875 287.976562 348.230469 282.65625 351.222656 277.183594 C 354.210938 271.707031 356.925781 266.089844 359.355469 260.34375 C 361.785156 254.601562 363.921875 248.738281 365.765625 242.78125 C 367.609375 236.824219 369.152344 230.777344 370.390625 224.664062 C 371.632812 218.550781 372.5625 212.378906 373.1875 206.175781 C 373.808594 199.96875 374.121094 193.738281 374.121094 187.5 C 374.121094 183.085938 373.964844 178.671875 373.652344 174.265625 C 373.210938 168.046875 372.460938 161.851562 371.402344 155.707031 C 370.339844 149.5625 368.972656 143.472656 367.304688 137.460938 C 365.636719 131.453125 363.667969 125.53125 361.40625 119.71875 C 359.148438 113.90625 356.601562 108.210938 353.769531 102.652344 C 350.941406 97.09375 347.835938 91.679688 344.46875 86.429688 C 341.097656 81.183594 337.46875 76.105469 333.589844 71.222656 C 329.714844 66.335938 325.59375 61.648438 321.25 57.175781 C 316.90625 52.699219 312.339844 48.445312 307.566406 44.425781 C 302.796875 40.410156 297.832031 36.632812 292.683594 33.113281 C 287.535156 29.589844 282.214844 26.328125 276.742188 23.339844 C 271.269531 20.347656 265.648438 17.636719 259.90625 15.207031 C 254.160156 12.777344 248.296875 10.636719 242.339844 8.792969 C 236.382812 6.949219 230.335938 5.40625 224.222656 4.167969 C 218.113281 2.929688 211.941406 1.996094 205.734375 1.375 C 199.53125 0.75 193.296875 0.4375 187.058594 0.4375 Z M 187.058594 0.4375 " fill-opacity="1" fill-rule="nonzero"/><path fill="#ff0000" d="M 187.058594 0.4375 C 182.644531 0.4375 178.230469 0.59375 173.828125 0.90625 C 170.078125 1.25 166.339844 1.703125 162.621094 2.265625 L 162.621094 150.242188 L 3.753906 150.242188 C 3.746094 150.273438 3.738281 150.304688 3.730469 150.339844 C 2.492188 156.449219 1.558594 162.621094 0.933594 168.828125 C 0.3125 175.03125 0 181.261719 0 187.5 C 0 191.914062 0.15625 196.328125 0.46875 200.734375 C 0.910156 206.953125 1.660156 213.148438 2.71875 219.296875 C 3.242188 221.875 3.820312 224.445312 4.449219 227 L 162.621094 227 L 162.621094 372.757812 C 164.535156 373.078125 166.460938 373.367188 168.386719 373.628906 C 174.589844 374.25 180.824219 374.5625 187.058594 374.5625 C 191.476562 374.5625 195.886719 374.40625 200.292969 374.09375 C 203.917969 373.757812 207.535156 373.320312 211.136719 372.777344 L 211.136719 227 L 369.796875 227 C 370 226.222656 370.199219 225.445312 370.390625 224.664062 C 371.632812 218.550781 372.566406 212.382812 373.1875 206.175781 C 373.808594 199.96875 374.121094 193.738281 374.121094 187.5 C 374.121094 183.085938 373.964844 178.671875 373.652344 174.265625 C 373.214844 168.046875 372.460938 161.851562 371.402344 155.707031 C 371.019531 153.878906 370.609375 152.058594 370.175781 150.242188 L 211.136719 150.242188 L 211.136719 2.191406 C 209.339844 1.894531 207.539062 1.621094 205.734375 1.375 C 199.53125 0.75 193.296875 0.441406 187.058594 0.4375 Z M 308.1875 45.003906 L 227.855469 123.792969 L 256.21875 123.792969 L 323.378906 59.597656 C 322.675781 58.785156 321.964844 57.976562 321.25 57.175781 C 317.089844 52.910156 312.730469 48.851562 308.1875 45.003906 Z M 51.398438 59.039062 C 48.851562 61.617188 46.382812 64.269531 43.988281 66.992188 C 41.660156 69.871094 39.421875 72.820312 37.269531 75.832031 L 87.453125 123.796875 L 119.15625 123.796875 Z M 145.898438 253.445312 L 116.300781 253.445312 L 51.078125 315.78125 C 51.671875 316.46875 52.269531 317.148438 52.871094 317.824219 C 57.207031 322.289062 61.765625 326.535156 66.523438 330.542969 L 145.898438 253.441406 Z M 254.816406 253.445312 L 321.542969 317.226562 C 324.507812 314.25 327.375 311.175781 330.132812 308.007812 C 332.082031 305.570312 333.972656 303.085938 335.796875 300.554688 L 286.503906 253.445312 Z M 254.816406 253.445312 " fill-opacity="1" fill-rule="nonzero"/></g><path fill="#000080" d="M 227.769531 5.074219 L 227.769531 107.320312 L 300.03125 38.695312 C 297.625 36.777344 295.175781 34.914062 292.683594 33.113281 C 287.535156 29.589844 282.214844 26.328125 276.742188 23.339844 C 271.269531 20.347656 265.648438 17.636719 259.90625 15.207031 C 254.160156 12.777344 248.296875 10.636719 242.339844 8.792969 C 237.535156 7.359375 232.675781 6.117188 227.769531 5.074219 Z M 145.785156 5.289062 C 142.847656 5.875 139.925781 6.53125 137.023438 7.257812 C 131.011719 8.925781 125.089844 10.890625 119.277344 13.152344 C 113.464844 15.410156 107.769531 17.960938 102.210938 20.789062 C 96.652344 23.617188 91.238281 26.722656 85.988281 30.09375 C 81.78125 32.855469 77.6875 35.78125 73.714844 38.871094 L 145.785156 107.320312 Z M 341.570312 82.378906 L 298.21875 123.738281 L 362.742188 123.738281 C 362.3125 122.394531 361.867188 121.054688 361.40625 119.71875 C 359.148438 113.90625 356.601562 108.210938 353.769531 102.652344 C 350.941406 97.09375 347.835938 91.679688 344.46875 86.429688 C 343.519531 85.066406 342.554688 83.714844 341.570312 82.378906 Z M 32.09375 82.820312 C 28.796875 87.671875 25.726562 92.675781 22.898438 97.816406 C 19.90625 103.289062 17.195312 108.910156 14.765625 114.65625 C 13.582031 117.652344 12.476562 120.683594 11.449219 123.738281 L 74.980469 123.738281 Z M 11.976562 253.074219 C 12.21875 253.8125 12.464844 254.550781 12.710938 255.285156 C 14.972656 261.097656 17.519531 266.792969 20.347656 272.351562 C 23.179688 277.910156 26.285156 283.320312 29.652344 288.570312 C 30.730469 290.121094 31.828125 291.65625 32.949219 293.175781 L 74.980469 253.074219 Z M 298.21875 253.074219 L 340.921875 293.8125 C 341.097656 293.582031 341.273438 293.355469 341.449219 293.121094 C 344.96875 287.976562 348.230469 282.65625 351.222656 277.183594 C 354.210938 271.707031 356.925781 266.089844 359.355469 260.34375 C 360.289062 257.941406 361.175781 255.515625 362.007812 253.074219 Z M 145.785156 268.496094 L 74.253906 336.429688 C 76.605469 338.304688 79 340.125 81.4375 341.890625 C 86.585938 345.410156 91.90625 348.671875 97.378906 351.664062 C 102.851562 354.652344 108.46875 357.367188 114.214844 359.796875 C 119.960938 362.226562 125.820312 364.363281 131.78125 366.207031 C 136.402344 367.578125 141.074219 368.773438 145.785156 369.78125 Z M 227.769531 268.496094 L 227.769531 369.835938 C 230.898438 369.21875 234.007812 368.523438 237.097656 367.746094 C 243.109375 366.078125 249.03125 364.109375 254.84375 361.847656 C 260.65625 359.589844 266.351562 357.039062 271.910156 354.210938 C 277.46875 351.382812 282.882812 348.277344 288.128906 344.90625 C 292.054688 342.320312 295.878906 339.582031 299.597656 336.707031 Z M 227.769531 268.496094 " fill-opacity="1" fill-rule="evenodd"/></svg>